M48
METRIC,LZ,000.000
;FILE_FORMAT=3:3
;TYPE=PLATED
;Layer: PTH_Through
;EasyEDA v6.5.42, 2024-04-10 10:33:45
;677a2e3dccde402284f6343da6576b70,88035802e6a84ff2a66c0cebeecd398b,10
;Gerber Generator version 0.2
;Holesize 1 = 0.310 mm
T01C0.310
;Holesize 2 = 1.000 mm
T02C1.000
;Holesize 3 = 1.021 mm
T03C1.021
%
G05
G90
T01
X030492Y106934
X049503Y106934
X033020Y108966
X054737Y108966
X035560Y111887
X057277Y111887
X038100Y114427
X047117Y114427
T02
X008990Y101178G85X008990Y101178
X011530Y101178G85X011530Y101178
X014070Y101178G85X014070Y101178
X016610Y101178G85X016610Y101178
X019150Y101178G85X019150Y101178
X021690Y101178G85X021690Y101178
X024230Y101178G85X024230Y101178
X026770Y101178G85X026770Y101178
X029310Y101178G85X029310Y101178
X031850Y101178G85X031850Y101178
X034390Y101178G85X034390Y101178
X036930Y101178G85X036930Y101178
X039470Y101178G85X039470Y101178
X042010Y101178G85X042010Y101178
X044550Y101178G85X044550Y101178
X047090Y101178G85X047090Y101178
X049630Y101178G85X049630Y101178
X052170Y101178G85X052170Y101178
X054710Y101178G85X054710Y101178
X057250Y101178G85X057250Y101178
X008990Y118958G85X008990Y118958
X011530Y118958G85X011530Y118958
X014070Y118958G85X014070Y118958
X016610Y118958G85X016610Y118958
X019150Y118958G85X019150Y118958
X021690Y118958G85X021690Y118958
X024230Y118958G85X024230Y118958
X026770Y118958G85X026770Y118958
X029310Y118958G85X029310Y118958
X031850Y118958G85X031850Y118958
X034390Y118958G85X034390Y118958
X036930Y118958G85X036930Y118958
X039470Y118958G85X039470Y118958
X042010Y118958G85X042010Y118958
X044550Y118958G85X044550Y118958
X047090Y118958G85X047090Y118958
X049630Y118958G85X049630Y118958
X052170Y118958G85X052170Y118958
X054710Y118958G85X054710Y118958
X057250Y118958G85X057250Y118958
T03
X009017Y118872
X011557Y118872
X014097Y118872
X016637Y118872
X019177Y118872
X021717Y118872
X024257Y118872
X026797Y118872
X029337Y118872
X031877Y118872
X034417Y118872
X036957Y118872
X039497Y118872
X042037Y118872
X044577Y118872
X047117Y118872
X049657Y118872
X052197Y118872
X054737Y118872
X057277Y118872
X009017Y101219
X011557Y101219
X014097Y101219
X016637Y101219
X019177Y101219
X021717Y101219
X024257Y101219
X026797Y101219
X029337Y101219
X031877Y101219
X034417Y101219
X036957Y101219
X039497Y101219
X042037Y101219
X044577Y101219
X047117Y101219
X049657Y101219
X052197Y101219
X054737Y101219
X057277Y101219
M30
