G04 Layer: BottomSilkscreenLayer*
G04 EasyEDA v6.5.42, 2024-04-10 10:33:45*
G04 677a2e3dccde402284f6343da6576b70,88035802e6a84ff2a66c0cebeecd398b,10*
G04 Gerber Generator version 0.2*
G04 Scale: 100 percent, Rotated: No, Reflected: No *
G04 Dimensions in millimeters *
G04 leading zeros omitted , absolute positions ,4 integer and 5 decimal *
%FSLAX45Y45*%
%MOMM*%

%ADD10C,0.1700*%
%ADD11C,0.7500*%
%ADD12C,0.2032*%

%LPD*%
G36*
X2975864Y10005822D02*
G01*
X2975864Y9666833D01*
X3008477Y9666833D01*
X3008477Y9689846D01*
X3010204Y9690862D01*
X3010204Y9698431D01*
X3011881Y9699447D01*
X3011881Y9703663D01*
X3017469Y9715246D01*
X3018790Y9715804D01*
X3018790Y9717887D01*
X3023870Y9723831D01*
X3023920Y9725152D01*
X3033318Y9734550D01*
X3034639Y9734550D01*
X3040684Y9739731D01*
X3042818Y9739731D01*
X3042818Y9741408D01*
X3046222Y9741408D01*
X3046222Y9743135D01*
X3049676Y9743135D01*
X3049676Y9744862D01*
X3054807Y9744862D01*
X3054807Y9746589D01*
X3059887Y9746589D01*
X3060954Y9748316D01*
X3068574Y9748316D01*
X3068574Y9749891D01*
X3090468Y9750856D01*
X3132074Y9751822D01*
X3132074Y9603994D01*
X3089605Y9604908D01*
X3068980Y9605924D01*
X3067354Y9607499D01*
X3060954Y9607499D01*
X3059887Y9609226D01*
X3054807Y9609226D01*
X3054807Y9610953D01*
X3050641Y9610953D01*
X3049574Y9612680D01*
X3046222Y9612680D01*
X3046222Y9614408D01*
X3043580Y9614408D01*
X3039922Y9617811D01*
X3037636Y9617811D01*
X3037636Y9619183D01*
X3032709Y9622078D01*
X3027730Y9626854D01*
X3023565Y9632848D01*
X3020923Y9635439D01*
X3018485Y9639706D01*
X3013608Y9649561D01*
X3013608Y9652152D01*
X3011881Y9652152D01*
X3011881Y9657181D01*
X3010204Y9658248D01*
X3010204Y9665766D01*
X3008477Y9666833D01*
X2975864Y9666833D01*
X2975864Y9399778D01*
X3175000Y9399778D01*
X3175000Y10005822D01*
G37*
G36*
X2696006Y10005822D02*
G01*
X2696006Y9648799D01*
X2733802Y9648799D01*
X2733802Y9665766D01*
X2735478Y9666833D01*
X2735478Y9671812D01*
X2737205Y9672878D01*
X2737205Y9676180D01*
X2738932Y9676180D01*
X2738932Y9678517D01*
X2747975Y9687763D01*
X2751785Y9689947D01*
X2759964Y9693554D01*
X2762961Y9695078D01*
X2766415Y9695078D01*
X2766415Y9698380D01*
X2761386Y9701936D01*
X2760370Y9701936D01*
X2751378Y9711080D01*
X2749245Y9714788D01*
X2749245Y9717379D01*
X2747518Y9717379D01*
X2747518Y9724136D01*
X2745638Y9725304D01*
X2747670Y9738410D01*
X2749245Y9740036D01*
X2749245Y9742728D01*
X2759303Y9752380D01*
X2765958Y9755327D01*
X2768955Y9756902D01*
X2772918Y9756902D01*
X2774543Y9758476D01*
X2794304Y9759492D01*
X2843631Y9760407D01*
X2843631Y9612579D01*
X2789123Y9613442D01*
X2771952Y9614509D01*
X2770327Y9616084D01*
X2764688Y9616084D01*
X2764688Y9617811D01*
X2762097Y9617811D01*
X2755646Y9620961D01*
X2751378Y9623399D01*
X2738932Y9635845D01*
X2738932Y9638436D01*
X2737205Y9638436D01*
X2737205Y9642602D01*
X2735478Y9643668D01*
X2735478Y9647783D01*
X2733802Y9648799D01*
X2696006Y9648799D01*
X2696006Y9399778D01*
X2895142Y9399778D01*
X2895142Y10005822D01*
G37*
G36*
X2411018Y10005822D02*
G01*
X2411018Y9399778D01*
X2610154Y9399778D01*
X2610154Y10005822D01*
G37*
G36*
X2124303Y10005822D02*
G01*
X2124303Y9399778D01*
X2323439Y9399778D01*
X2323439Y10005822D01*
G37*
G36*
X1841042Y10005822D02*
G01*
X1841042Y9399778D01*
X2040178Y9399778D01*
X2040178Y10005822D01*
G37*
G36*
X1564640Y10005822D02*
G01*
X1564640Y9399778D01*
X1763775Y9399778D01*
X1763775Y10005822D01*
G37*
G36*
X1281379Y10005822D02*
G01*
X1281379Y9399778D01*
X1480515Y9399778D01*
X1480515Y10005822D01*
G37*
G36*
X1001521Y10005822D02*
G01*
X1001521Y9399778D01*
X1200658Y9399778D01*
X1200658Y10005822D01*
G37*
G36*
X2778404Y9744862D02*
G01*
X2778404Y9743135D01*
X2775153Y9743135D01*
X2768142Y9739376D01*
X2765958Y9734550D01*
X2764688Y9734550D01*
X2764688Y9713976D01*
X2766415Y9713976D01*
X2766415Y9710521D01*
X2767685Y9710521D01*
X2769412Y9706813D01*
X2772816Y9704933D01*
X2773680Y9704070D01*
X2781808Y9700209D01*
X2826512Y9700209D01*
X2826512Y9744862D01*
G37*
G36*
X3072942Y9736277D02*
G01*
X3071876Y9734550D01*
X3065221Y9734550D01*
X3064154Y9732822D01*
X3060801Y9732822D01*
X3050946Y9727996D01*
X3046730Y9725558D01*
X3034233Y9712960D01*
X3034233Y9710521D01*
X3032506Y9710521D01*
X3032506Y9707067D01*
X3030778Y9707067D01*
X3030778Y9703765D01*
X3029051Y9702698D01*
X3029051Y9697770D01*
X3027375Y9696704D01*
X3027375Y9687458D01*
X3025648Y9686391D01*
X3025648Y9669424D01*
X3027375Y9668357D01*
X3027375Y9659112D01*
X3029051Y9658045D01*
X3029051Y9653828D01*
X3030677Y9650882D01*
X3032912Y9645294D01*
X3034233Y9645294D01*
X3034233Y9642246D01*
X3037636Y9639757D01*
X3037636Y9637674D01*
X3049219Y9628124D01*
X3051403Y9628124D01*
X3051403Y9626396D01*
X3054807Y9626396D01*
X3054807Y9624669D01*
X3058160Y9624669D01*
X3059226Y9622993D01*
X3063290Y9622993D01*
X3064357Y9621266D01*
X3071977Y9621266D01*
X3071977Y9619538D01*
X3114903Y9619538D01*
X3114903Y9736277D01*
G37*
G36*
X2771648Y9684766D02*
G01*
X2770581Y9683038D01*
X2767431Y9683038D01*
X2760014Y9679178D01*
X2754376Y9673691D01*
X2754376Y9671050D01*
X2752648Y9671050D01*
X2752648Y9665970D01*
X2750972Y9664954D01*
X2750972Y9649663D01*
X2752648Y9648596D01*
X2752648Y9643567D01*
X2754376Y9643567D01*
X2754376Y9641128D01*
X2762250Y9633254D01*
X2764688Y9633254D01*
X2764688Y9631578D01*
X2767990Y9631578D01*
X2769057Y9629851D01*
X2774899Y9629851D01*
X2775966Y9628124D01*
X2826512Y9628124D01*
X2826512Y9684766D01*
G37*
G36*
X2963824Y9346539D02*
G01*
X2963824Y8982608D01*
X3001619Y8982608D01*
X3001619Y9003182D01*
X3002635Y9003182D01*
X3007461Y8998051D01*
X3008985Y8998051D01*
X3012440Y8995054D01*
X3016605Y8992616D01*
X3023514Y8989212D01*
X3027781Y8987536D01*
X3030778Y8986012D01*
X3035858Y8986012D01*
X3036874Y8984335D01*
X3065881Y8984335D01*
X3066948Y8986012D01*
X3071164Y8986012D01*
X3082290Y8991447D01*
X3082290Y8992920D01*
X3084525Y8992920D01*
X3090519Y8998458D01*
X3094634Y9004503D01*
X3095599Y9005366D01*
X3099460Y9012783D01*
X3099460Y9015222D01*
X3101187Y9015222D01*
X3101187Y9019387D01*
X3102914Y9020454D01*
X3102914Y9025178D01*
X3104489Y9026804D01*
X3106470Y9052356D01*
X3104591Y9054185D01*
X3104591Y9065768D01*
X3102914Y9066834D01*
X3102914Y9071914D01*
X3101390Y9074861D01*
X3099663Y9079179D01*
X3095752Y9087307D01*
X3094329Y9087307D01*
X3094278Y9089491D01*
X3087014Y9097314D01*
X3078988Y9102801D01*
X3077159Y9102801D01*
X3077159Y9104477D01*
X3073806Y9104477D01*
X3072739Y9106204D01*
X3067812Y9106204D01*
X3066745Y9107932D01*
X3036874Y9107932D01*
X3035858Y9106204D01*
X3030016Y9106204D01*
X3028950Y9104477D01*
X3024886Y9104477D01*
X3023819Y9102801D01*
X3020466Y9102801D01*
X3020466Y9101074D01*
X3017062Y9101074D01*
X3017062Y9099346D01*
X3013608Y9099346D01*
X3013608Y9097619D01*
X3011373Y9097619D01*
X3008020Y9094622D01*
X3003296Y9092184D01*
X3003296Y9090761D01*
X3001619Y9090761D01*
X3001619Y9108897D01*
X3004058Y9111386D01*
X3006750Y9111386D01*
X3006750Y9113062D01*
X3009341Y9113062D01*
X3016148Y9116517D01*
X3019501Y9116517D01*
X3020568Y9118244D01*
X3025648Y9118244D01*
X3025648Y9119920D01*
X3032150Y9119920D01*
X3033776Y9121546D01*
X3049219Y9122156D01*
X3051810Y9123375D01*
X3054400Y9121698D01*
X3068472Y9121648D01*
X3069539Y9119920D01*
X3075432Y9119920D01*
X3075432Y9118244D01*
X3080562Y9118244D01*
X3080562Y9116517D01*
X3083001Y9116517D01*
X3090468Y9112656D01*
X3091027Y9111386D01*
X3093008Y9111335D01*
X3103321Y9102242D01*
X3109315Y9095435D01*
X3111754Y9090761D01*
X3113176Y9090761D01*
X3113176Y9087307D01*
X3114903Y9087307D01*
X3114903Y9083903D01*
X3116630Y9083903D01*
X3116630Y9079687D01*
X3118358Y9078620D01*
X3118358Y9074556D01*
X3120085Y9073489D01*
X3120085Y9067698D01*
X3121761Y9066631D01*
X3121761Y9057386D01*
X3123488Y9056319D01*
X3123488Y9035897D01*
X3121761Y9034881D01*
X3121761Y9023908D01*
X3120085Y9022842D01*
X3120085Y9016949D01*
X3118358Y9016949D01*
X3118358Y9011767D01*
X3116630Y9011767D01*
X3116630Y9009430D01*
X3111042Y8998458D01*
X3108045Y8995156D01*
X3108045Y8993682D01*
X3097733Y8983573D01*
X3092602Y8980525D01*
X3092602Y8979154D01*
X3089148Y8979154D01*
X3089148Y8977884D01*
X3083560Y8975598D01*
X3080613Y8974023D01*
X3077260Y8974023D01*
X3076194Y8972296D01*
X3070606Y8972296D01*
X3068980Y8970721D01*
X3052673Y8969806D01*
X3035503Y8970721D01*
X3033877Y8972296D01*
X3027476Y8972296D01*
X3026410Y8974023D01*
X3022295Y8974023D01*
X3021228Y8975750D01*
X3018078Y8975750D01*
X3007614Y8980881D01*
X3005023Y8980881D01*
X3005023Y8982608D01*
X2963824Y8982608D01*
X2963824Y8740546D01*
X3162960Y8740546D01*
X3162960Y9346539D01*
G37*
G36*
X2683967Y9346539D02*
G01*
X2683967Y8740546D01*
X2883154Y8740546D01*
X2883154Y9346539D01*
G37*
G36*
X2398979Y9346539D02*
G01*
X2398979Y9114790D01*
X2543200Y9114790D01*
X2543200Y8967165D01*
X2447086Y8967165D01*
X2447086Y8982608D01*
X2526030Y8982608D01*
X2526030Y9040977D01*
X2447086Y9040977D01*
X2447086Y9056420D01*
X2526030Y9056420D01*
X2526030Y9099346D01*
X2447086Y9099346D01*
X2447086Y9114790D01*
X2398979Y9114790D01*
X2398979Y8740546D01*
X2598166Y8740546D01*
X2598166Y9346539D01*
G37*
G36*
X2112314Y9346539D02*
G01*
X2112314Y8740546D01*
X2311450Y8740546D01*
X2311450Y9346539D01*
G37*
G36*
X1829003Y9346539D02*
G01*
X1829003Y8740546D01*
X2028189Y8740546D01*
X2028189Y9346539D01*
G37*
G36*
X1552600Y9346539D02*
G01*
X1552600Y8740546D01*
X1751787Y8740546D01*
X1751787Y9346539D01*
G37*
G36*
X1269339Y9346539D02*
G01*
X1269339Y8740546D01*
X1468475Y8740546D01*
X1468475Y9346539D01*
G37*
G36*
X989482Y9346539D02*
G01*
X989482Y8982557D01*
X1020368Y8982557D01*
X1023823Y8989466D01*
X1023823Y8992920D01*
X1025550Y8992920D01*
X1025550Y8996375D01*
X1029004Y9003182D01*
X1029004Y9006535D01*
X1030732Y9007602D01*
X1030732Y9011767D01*
X1032408Y9011767D01*
X1032408Y9015222D01*
X1035862Y9022080D01*
X1035862Y9025432D01*
X1037590Y9026499D01*
X1037590Y9030665D01*
X1039266Y9030665D01*
X1039266Y9034119D01*
X1042720Y9040926D01*
X1042720Y9044279D01*
X1044448Y9045346D01*
X1044448Y9049562D01*
X1046175Y9049562D01*
X1046175Y9053017D01*
X1049578Y9059824D01*
X1049578Y9063177D01*
X1051306Y9064244D01*
X1051306Y9068460D01*
X1053033Y9068460D01*
X1053033Y9071914D01*
X1056436Y9078722D01*
X1056436Y9082176D01*
X1058164Y9082176D01*
X1058164Y9087307D01*
X1059891Y9087307D01*
X1059891Y9090761D01*
X1063345Y9097619D01*
X1063345Y9101074D01*
X1065022Y9101074D01*
X1065022Y9104528D01*
X1068476Y9111335D01*
X1068476Y9114688D01*
X1070203Y9115755D01*
X1070203Y9119920D01*
X1071930Y9119920D01*
X1071930Y9123426D01*
X1075080Y9129826D01*
X1097280Y9130284D01*
X1099362Y9128201D01*
X1099362Y9125204D01*
X1101090Y9124137D01*
X1101090Y9119920D01*
X1102817Y9119920D01*
X1102817Y9115755D01*
X1104544Y9114688D01*
X1104544Y9111335D01*
X1107948Y9104528D01*
X1107948Y9101074D01*
X1109675Y9101074D01*
X1109675Y9096857D01*
X1111402Y9095790D01*
X1111402Y9092438D01*
X1114856Y9085630D01*
X1114856Y9082176D01*
X1116533Y9082176D01*
X1116533Y9077960D01*
X1118260Y9076944D01*
X1118260Y9073591D01*
X1121714Y9066733D01*
X1121714Y9063278D01*
X1123391Y9063278D01*
X1123391Y9059113D01*
X1125118Y9058046D01*
X1125118Y9053931D01*
X1126845Y9052864D01*
X1126845Y9049562D01*
X1128572Y9049562D01*
X1128572Y9044432D01*
X1130300Y9044432D01*
X1130300Y9040926D01*
X1133703Y9034119D01*
X1133703Y9030665D01*
X1135430Y9030665D01*
X1135430Y9025534D01*
X1137158Y9025534D01*
X1137158Y9022080D01*
X1140561Y9015222D01*
X1140561Y9011767D01*
X1142288Y9011767D01*
X1142288Y9007602D01*
X1144016Y9006535D01*
X1144016Y9003182D01*
X1147470Y8996375D01*
X1147470Y8992920D01*
X1149146Y8992920D01*
X1149146Y8988704D01*
X1150670Y8987790D01*
X1151432Y8982608D01*
X1135888Y8982608D01*
X1133703Y8987231D01*
X1133703Y8989466D01*
X1130300Y8996324D01*
X1130300Y8999778D01*
X1128572Y8999778D01*
X1128572Y9004909D01*
X1126845Y9004909D01*
X1126845Y9009126D01*
X1125118Y9010192D01*
X1125118Y9013545D01*
X1121714Y9020352D01*
X1121714Y9023807D01*
X1053642Y9023807D01*
X1051356Y9020810D01*
X1051306Y9017050D01*
X1049578Y9015984D01*
X1049578Y9011767D01*
X1047851Y9011767D01*
X1047851Y9008313D01*
X1044448Y9001506D01*
X1044448Y8998153D01*
X1042720Y8997086D01*
X1042720Y8993022D01*
X1040993Y8991955D01*
X1040993Y8987739D01*
X1039418Y8987739D01*
X1038860Y8983014D01*
X1020368Y8982557D01*
X989482Y8982557D01*
X989482Y8740546D01*
X1188669Y8740546D01*
X1188669Y9346539D01*
G37*
G36*
X1086358Y9114790D02*
G01*
X1083919Y9112351D01*
X1083919Y9107932D01*
X1082192Y9107932D01*
X1082192Y9104477D01*
X1078788Y9097670D01*
X1078788Y9094317D01*
X1077061Y9093250D01*
X1077061Y9089034D01*
X1075334Y9089034D01*
X1075334Y9083903D01*
X1073607Y9083903D01*
X1073607Y9080449D01*
X1070203Y9073591D01*
X1070203Y9070238D01*
X1068476Y9069171D01*
X1068476Y9065107D01*
X1066749Y9064040D01*
X1066749Y9059875D01*
X1065022Y9059875D01*
X1065022Y9056420D01*
X1061618Y9049562D01*
X1061618Y9046210D01*
X1059891Y9045143D01*
X1059891Y9039250D01*
X1114856Y9039250D01*
X1114856Y9042704D01*
X1111402Y9049512D01*
X1111402Y9052966D01*
X1109675Y9052966D01*
X1109675Y9058148D01*
X1107948Y9058148D01*
X1107948Y9062313D01*
X1106220Y9063380D01*
X1106220Y9066733D01*
X1102817Y9073591D01*
X1102817Y9077045D01*
X1101090Y9077045D01*
X1101090Y9082176D01*
X1099362Y9082176D01*
X1099362Y9086392D01*
X1097686Y9087408D01*
X1097686Y9090761D01*
X1094232Y9097619D01*
X1094232Y9101074D01*
X1092504Y9101074D01*
X1092504Y9106204D01*
X1090777Y9106204D01*
X1090777Y9110421D01*
X1089101Y9111488D01*
X1089101Y9114790D01*
G37*
G36*
X5241239Y11329822D02*
G01*
X5224576Y11329009D01*
X5218125Y11325910D01*
X5212384Y11322608D01*
X5207152Y11317833D01*
X5203494Y11311280D01*
X5200243Y11304879D01*
X5200243Y11285626D01*
X5203494Y11279174D01*
X5206796Y11273434D01*
X5211572Y11268202D01*
X5218125Y11264544D01*
X5224576Y11261293D01*
X5243830Y11261293D01*
X5250230Y11264544D01*
X5256834Y11268202D01*
X5261559Y11273434D01*
X5264912Y11279174D01*
X5268112Y11285626D01*
X5268112Y11304879D01*
X5264912Y11311280D01*
X5261508Y11317122D01*
X5255564Y11323472D01*
X5253024Y11323472D01*
X5248960Y11326977D01*
G37*
G36*
X5623763Y11157813D02*
G01*
X5592978Y11154206D01*
X5585256Y11152632D01*
X5574995Y11149888D01*
X5563463Y11145367D01*
X5550611Y11139373D01*
X5539892Y11132210D01*
X5538114Y11132210D01*
X5524957Y11121491D01*
X5508650Y11105896D01*
X5497982Y11091773D01*
X5492191Y11083340D01*
X5479389Y11056823D01*
X5479389Y11052759D01*
X5477103Y11051336D01*
X5475681Y11043005D01*
X5472734Y11031423D01*
X5470042Y11007039D01*
X5470042Y10995507D01*
X5472734Y10971123D01*
X5473406Y10968482D01*
X5574334Y10968482D01*
X5574334Y10989614D01*
X5580634Y11004499D01*
X5590387Y11013846D01*
X5601817Y11019231D01*
X5625642Y11019231D01*
X5635345Y11013846D01*
X5641086Y11008512D01*
X5641086Y11019688D01*
X5638190Y11028883D01*
X5635396Y11035284D01*
X5628132Y11046256D01*
X5614771Y11053114D01*
X5585256Y11053267D01*
X5584494Y11066932D01*
X5587492Y11070590D01*
X5618632Y11070336D01*
X5631129Y11065611D01*
X5641340Y11058550D01*
X5650839Y11047730D01*
X5656326Y11036554D01*
X5661964Y11017504D01*
X5661914Y10973663D01*
X5656681Y10960100D01*
X5647690Y10946536D01*
X5637885Y10940237D01*
X5631484Y10937443D01*
X5622290Y10934547D01*
X5609844Y10934547D01*
X5600649Y10937494D01*
X5592470Y10940999D01*
X5584647Y10947552D01*
X5579211Y10955172D01*
X5574334Y10968482D01*
X5473406Y10968482D01*
X5475681Y10959541D01*
X5477103Y10951210D01*
X5479389Y10949787D01*
X5479389Y10945723D01*
X5492191Y10919256D01*
X5497982Y10910773D01*
X5508650Y10896650D01*
X5524957Y10881055D01*
X5538114Y10870336D01*
X5539892Y10870336D01*
X5550611Y10863173D01*
X5563463Y10857179D01*
X5574995Y10852658D01*
X5585256Y10849914D01*
X5592978Y10848340D01*
X5613501Y10845647D01*
X5627624Y10845647D01*
X5648147Y10848340D01*
X5655868Y10849914D01*
X5666130Y10852658D01*
X5677712Y10857179D01*
X5690514Y10863173D01*
X5701233Y10870336D01*
X5703011Y10870336D01*
X5716219Y10881055D01*
X5732475Y10896650D01*
X5743143Y10910773D01*
X5748934Y10919256D01*
X5761786Y10945723D01*
X5761786Y10949787D01*
X5764072Y10951210D01*
X5765444Y10959541D01*
X5768390Y10971123D01*
X5771083Y10995507D01*
X5771083Y11007039D01*
X5768390Y11031423D01*
X5765444Y11043005D01*
X5764072Y11051336D01*
X5761786Y11052759D01*
X5761786Y11056823D01*
X5748934Y11083340D01*
X5743143Y11091773D01*
X5732475Y11105896D01*
X5716219Y11121491D01*
X5703011Y11132210D01*
X5701233Y11132210D01*
X5690514Y11139373D01*
X5677712Y11145367D01*
X5672531Y11147247D01*
X5666130Y11149888D01*
X5655868Y11152632D01*
X5648147Y11154206D01*
X5626354Y11156645D01*
G37*
G36*
X5238699Y11157813D02*
G01*
X5207863Y11154206D01*
X5200192Y11152632D01*
X5189880Y11149888D01*
X5178348Y11145367D01*
X5165496Y11139373D01*
X5154777Y11132210D01*
X5153050Y11132210D01*
X5139842Y11121491D01*
X5123535Y11105896D01*
X5112918Y11091773D01*
X5107127Y11083340D01*
X5094274Y11056823D01*
X5094274Y11052759D01*
X5091988Y11051336D01*
X5090617Y11043005D01*
X5087670Y11031423D01*
X5084927Y11007039D01*
X5084927Y10995507D01*
X5087670Y10971123D01*
X5088368Y10968380D01*
X5191810Y10968380D01*
X5191810Y10990122D01*
X5198313Y11001197D01*
X5209641Y11008969D01*
X5213197Y11008969D01*
X5214975Y11010747D01*
X5203240Y11018062D01*
X5197602Y11027562D01*
X5194452Y11036554D01*
X5194452Y11046866D01*
X5197602Y11055807D01*
X5203494Y11065357D01*
X5214162Y11073180D01*
X5218633Y11073180D01*
X5220208Y11075720D01*
X5252821Y11075416D01*
X5261000Y11072418D01*
X5262880Y11070590D01*
X5266131Y11070590D01*
X5277764Y11063528D01*
X5277815Y11059414D01*
X5270093Y11048746D01*
X5267604Y11048746D01*
X5250230Y11058042D01*
X5226608Y11058347D01*
X5219547Y11053064D01*
X5215128Y11045545D01*
X5214924Y11037163D01*
X5220411Y11025581D01*
X5231130Y11019282D01*
X5257952Y11017656D01*
X5261152Y11013643D01*
X5261152Y11004346D01*
X5258054Y11001298D01*
X5246370Y11001248D01*
X5225846Y10997844D01*
X5216093Y10993221D01*
X5212384Y10986008D01*
X5212384Y10972393D01*
X5217363Y10964214D01*
X5223256Y10960912D01*
X5232247Y10957661D01*
X5251246Y10957610D01*
X5272074Y10963249D01*
X5275224Y10965637D01*
X5279136Y10964113D01*
X5279136Y10949025D01*
X5274614Y10945266D01*
X5264353Y10942421D01*
X5250129Y10939373D01*
X5228386Y10940694D01*
X5218125Y10943082D01*
X5206542Y10948416D01*
X5196941Y10957763D01*
X5191810Y10968380D01*
X5088368Y10968380D01*
X5090617Y10959541D01*
X5091988Y10951210D01*
X5094274Y10949787D01*
X5094274Y10945723D01*
X5107127Y10919256D01*
X5112918Y10910773D01*
X5123535Y10896650D01*
X5139842Y10881055D01*
X5153050Y10870336D01*
X5154777Y10870336D01*
X5165496Y10863173D01*
X5178348Y10857179D01*
X5189880Y10852658D01*
X5200192Y10849914D01*
X5207863Y10848340D01*
X5228386Y10845647D01*
X5242560Y10845647D01*
X5263083Y10848340D01*
X5270754Y10849914D01*
X5281066Y10852658D01*
X5292598Y10857179D01*
X5305450Y10863173D01*
X5316169Y10870336D01*
X5317896Y10870336D01*
X5331104Y10881055D01*
X5347411Y10896650D01*
X5358028Y10910773D01*
X5363819Y10919256D01*
X5376672Y10945723D01*
X5376672Y10949787D01*
X5378958Y10951210D01*
X5380329Y10959541D01*
X5383276Y10971123D01*
X5386019Y10995507D01*
X5386019Y11007039D01*
X5383276Y11031423D01*
X5380329Y11043005D01*
X5378958Y11051336D01*
X5376672Y11052759D01*
X5376672Y11056823D01*
X5363819Y11083340D01*
X5358028Y11091773D01*
X5347411Y11105896D01*
X5331104Y11121491D01*
X5317896Y11132210D01*
X5316169Y11132210D01*
X5305450Y11139373D01*
X5292598Y11145367D01*
X5281066Y11149888D01*
X5270754Y11152632D01*
X5263083Y11154206D01*
X5241239Y11156645D01*
G37*
G36*
X4571187Y11157813D02*
G01*
X4540402Y11154206D01*
X4532680Y11152632D01*
X4522419Y11149888D01*
X4510836Y11145367D01*
X4498035Y11139373D01*
X4487265Y11132210D01*
X4485538Y11132210D01*
X4472330Y11121491D01*
X4456023Y11105896D01*
X4445406Y11091773D01*
X4439615Y11083340D01*
X4426762Y11056823D01*
X4426762Y11052759D01*
X4424476Y11051336D01*
X4423105Y11043005D01*
X4420158Y11031423D01*
X4417466Y11007039D01*
X4417466Y10995507D01*
X4420158Y10971123D01*
X4423105Y10959541D01*
X4424476Y10951210D01*
X4426762Y10949787D01*
X4426762Y10945723D01*
X4439615Y10919256D01*
X4445406Y10910773D01*
X4456023Y10896650D01*
X4472330Y10881055D01*
X4485538Y10870336D01*
X4487265Y10870336D01*
X4498035Y10863173D01*
X4510836Y10857179D01*
X4522419Y10852658D01*
X4532680Y10849914D01*
X4540402Y10848340D01*
X4560925Y10845647D01*
X4575048Y10845647D01*
X4595571Y10848340D01*
X4603292Y10849914D01*
X4613554Y10852658D01*
X4625086Y10857179D01*
X4637938Y10863173D01*
X4648657Y10870336D01*
X4650435Y10870336D01*
X4663592Y10881055D01*
X4679899Y10896650D01*
X4690567Y10910773D01*
X4696358Y10919256D01*
X4709160Y10945723D01*
X4709160Y10949787D01*
X4711446Y10951210D01*
X4712868Y10959541D01*
X4715814Y10971123D01*
X4718507Y10995507D01*
X4718507Y11007039D01*
X4715814Y11031423D01*
X4712868Y11043005D01*
X4711446Y11051336D01*
X4709160Y11052759D01*
X4709160Y11056823D01*
X4696358Y11083340D01*
X4690567Y11091773D01*
X4679899Y11105896D01*
X4663592Y11121491D01*
X4650435Y11132210D01*
X4648657Y11132210D01*
X4637938Y11139373D01*
X4625086Y11145367D01*
X4613554Y11149888D01*
X4603292Y11152632D01*
X4595571Y11154206D01*
X4573778Y11156645D01*
G37*
G36*
X4186072Y11157813D02*
G01*
X4155287Y11154206D01*
X4147565Y11152632D01*
X4137304Y11149888D01*
X4125772Y11145367D01*
X4112920Y11139373D01*
X4102201Y11132210D01*
X4100423Y11132210D01*
X4087266Y11121491D01*
X4070959Y11105896D01*
X4060342Y11091773D01*
X4054500Y11083340D01*
X4041698Y11056823D01*
X4041698Y11052759D01*
X4039412Y11051336D01*
X4038041Y11043005D01*
X4035094Y11031423D01*
X4032351Y11007039D01*
X4032351Y10995507D01*
X4035094Y10971123D01*
X4038041Y10959541D01*
X4039412Y10951210D01*
X4041698Y10949787D01*
X4041698Y10945723D01*
X4054500Y10919256D01*
X4060342Y10910773D01*
X4070959Y10896650D01*
X4087266Y10881055D01*
X4100423Y10870336D01*
X4102201Y10870336D01*
X4112920Y10863173D01*
X4125772Y10857179D01*
X4137304Y10852658D01*
X4147565Y10849914D01*
X4155287Y10848340D01*
X4175810Y10845647D01*
X4189933Y10845647D01*
X4210456Y10848340D01*
X4218178Y10849914D01*
X4228439Y10852658D01*
X4240022Y10857179D01*
X4252823Y10863173D01*
X4263593Y10870336D01*
X4265320Y10870336D01*
X4278528Y10881055D01*
X4294835Y10896650D01*
X4305452Y10910773D01*
X4311243Y10919256D01*
X4324096Y10945723D01*
X4324096Y10949787D01*
X4326382Y10951210D01*
X4327753Y10959541D01*
X4330700Y10971123D01*
X4333392Y10995507D01*
X4333392Y11007039D01*
X4330700Y11031423D01*
X4327753Y11043005D01*
X4326382Y11051336D01*
X4324096Y11052759D01*
X4324096Y11056823D01*
X4311243Y11083340D01*
X4305452Y11091773D01*
X4294835Y11105896D01*
X4278528Y11121491D01*
X4265320Y11132210D01*
X4263593Y11132210D01*
X4252823Y11139373D01*
X4240022Y11145367D01*
X4228439Y11149888D01*
X4218178Y11152632D01*
X4210456Y11154206D01*
X4188663Y11156645D01*
G37*
G36*
X3906265Y11073079D02*
G01*
X3889552Y11072266D01*
X3883151Y11069218D01*
X3877411Y11065865D01*
X3872179Y11061141D01*
X3868521Y11054537D01*
X3865270Y11048136D01*
X3865270Y11028883D01*
X3868521Y11022431D01*
X3871823Y11016691D01*
X3876598Y11011458D01*
X3883151Y11007801D01*
X3889552Y11004550D01*
X3908806Y11004550D01*
X3915257Y11007801D01*
X3921810Y11011458D01*
X3926586Y11016691D01*
X3929887Y11022431D01*
X3933139Y11028883D01*
X3933139Y11048136D01*
X3929887Y11054537D01*
X3926535Y11060430D01*
X3920591Y11066729D01*
X3918000Y11066729D01*
X3913936Y11070234D01*
G37*
G36*
X5619902Y11002365D02*
G01*
X5605830Y11000994D01*
X5598922Y10996066D01*
X5594908Y10988040D01*
X5594908Y10967872D01*
X5598109Y10962132D01*
X5603240Y10956137D01*
X5611876Y10952480D01*
X5623915Y10952480D01*
X5635345Y10959744D01*
X5641543Y10971834D01*
X5641746Y10988243D01*
X5636463Y10995355D01*
X5629706Y11000384D01*
G37*
G36*
X5623763Y10798403D02*
G01*
X5592978Y10794796D01*
X5585256Y10793222D01*
X5574995Y10790478D01*
X5563463Y10785957D01*
X5550611Y10779963D01*
X5539892Y10772800D01*
X5538114Y10772800D01*
X5524957Y10762081D01*
X5508650Y10746486D01*
X5497982Y10732363D01*
X5492191Y10723880D01*
X5479389Y10697413D01*
X5479389Y10696092D01*
X5574233Y10696092D01*
X5574995Y10707979D01*
X5662472Y10708640D01*
X5664200Y10706912D01*
X5664200Y10695990D01*
X5662676Y10691926D01*
X5597448Y10691926D01*
X5597448Y10690758D01*
X5612638Y10657890D01*
X5628894Y10621975D01*
X5642660Y10592409D01*
X5647537Y10580065D01*
X5646064Y10577677D01*
X5626862Y10577677D01*
X5621578Y10589869D01*
X5612841Y10608716D01*
X5612841Y10609834D01*
X5602579Y10631830D01*
X5602579Y10632948D01*
X5592318Y10654944D01*
X5592318Y10656011D01*
X5582056Y10678058D01*
X5582056Y10679023D01*
X5574233Y10696092D01*
X5479389Y10696092D01*
X5479389Y10693349D01*
X5477103Y10691926D01*
X5475681Y10683595D01*
X5472734Y10672013D01*
X5470042Y10647629D01*
X5470042Y10636097D01*
X5472734Y10611662D01*
X5475681Y10600131D01*
X5477103Y10591749D01*
X5479389Y10590377D01*
X5479389Y10586313D01*
X5492191Y10559796D01*
X5497982Y10551363D01*
X5508650Y10537240D01*
X5524957Y10521645D01*
X5538114Y10510926D01*
X5539892Y10510926D01*
X5550611Y10503763D01*
X5563463Y10497769D01*
X5574995Y10493248D01*
X5585256Y10490504D01*
X5592978Y10488930D01*
X5613501Y10486237D01*
X5627624Y10486237D01*
X5648147Y10488930D01*
X5655868Y10490504D01*
X5666130Y10493248D01*
X5677712Y10497769D01*
X5690514Y10503763D01*
X5701233Y10510926D01*
X5703011Y10510926D01*
X5716219Y10521645D01*
X5732475Y10537240D01*
X5743143Y10551363D01*
X5748934Y10559796D01*
X5761786Y10586313D01*
X5761786Y10590377D01*
X5764072Y10591749D01*
X5765444Y10600131D01*
X5768390Y10611662D01*
X5771083Y10636097D01*
X5771083Y10647629D01*
X5768390Y10672013D01*
X5765444Y10683595D01*
X5764072Y10691926D01*
X5761786Y10693349D01*
X5761786Y10697413D01*
X5748934Y10723880D01*
X5743143Y10732363D01*
X5732475Y10746486D01*
X5716219Y10762081D01*
X5703011Y10772800D01*
X5701233Y10772800D01*
X5690514Y10779963D01*
X5677712Y10785957D01*
X5672531Y10787837D01*
X5666130Y10790478D01*
X5655868Y10793222D01*
X5648147Y10794796D01*
X5626354Y10797235D01*
G37*
G36*
X5238699Y10798403D02*
G01*
X5207863Y10794796D01*
X5200192Y10793222D01*
X5189880Y10790478D01*
X5178348Y10785957D01*
X5165496Y10779963D01*
X5154777Y10772800D01*
X5153050Y10772800D01*
X5139842Y10762081D01*
X5123535Y10746486D01*
X5112918Y10732363D01*
X5107127Y10723880D01*
X5094274Y10697413D01*
X5094274Y10693349D01*
X5091988Y10691926D01*
X5090617Y10683595D01*
X5087670Y10672013D01*
X5084927Y10647629D01*
X5084927Y10636097D01*
X5086344Y10623499D01*
X5183936Y10623499D01*
X5184749Y10633506D01*
X5202072Y10634268D01*
X5202072Y10715802D01*
X5205171Y10718850D01*
X5222189Y10718850D01*
X5227472Y10713110D01*
X5238089Y10697667D01*
X5284216Y10632236D01*
X5284266Y10621518D01*
X5282692Y10617454D01*
X5222697Y10617454D01*
X5221986Y10588599D01*
X5205730Y10587786D01*
X5202072Y10590834D01*
X5202072Y10617454D01*
X5185460Y10617454D01*
X5183936Y10623499D01*
X5086344Y10623499D01*
X5087670Y10611662D01*
X5090617Y10600131D01*
X5091988Y10591749D01*
X5094274Y10590377D01*
X5094274Y10586313D01*
X5107127Y10559796D01*
X5112918Y10551363D01*
X5123535Y10537240D01*
X5139842Y10521645D01*
X5153050Y10510926D01*
X5154777Y10510926D01*
X5165496Y10503763D01*
X5178348Y10497769D01*
X5189880Y10493248D01*
X5200192Y10490504D01*
X5207863Y10488930D01*
X5228386Y10486237D01*
X5242560Y10486237D01*
X5263083Y10488930D01*
X5270754Y10490504D01*
X5281066Y10493248D01*
X5292598Y10497769D01*
X5305450Y10503763D01*
X5316169Y10510926D01*
X5317896Y10510926D01*
X5331104Y10521645D01*
X5347411Y10537240D01*
X5358028Y10551363D01*
X5363819Y10559796D01*
X5376672Y10586313D01*
X5376672Y10590377D01*
X5378958Y10591749D01*
X5380329Y10600131D01*
X5383276Y10611662D01*
X5386019Y10636097D01*
X5386019Y10647629D01*
X5383276Y10672013D01*
X5380329Y10683595D01*
X5378958Y10691926D01*
X5376672Y10693349D01*
X5376672Y10697413D01*
X5363819Y10723880D01*
X5358028Y10732363D01*
X5347411Y10746486D01*
X5331104Y10762081D01*
X5317896Y10772800D01*
X5316169Y10772800D01*
X5305450Y10779963D01*
X5292598Y10785957D01*
X5281066Y10790478D01*
X5270754Y10793222D01*
X5263083Y10794796D01*
X5241239Y10797235D01*
G37*
G36*
X4571187Y10798403D02*
G01*
X4540402Y10794796D01*
X4532680Y10793222D01*
X4522419Y10790478D01*
X4510836Y10785957D01*
X4498035Y10779963D01*
X4487265Y10772800D01*
X4485538Y10772800D01*
X4472330Y10762081D01*
X4456023Y10746486D01*
X4445406Y10732363D01*
X4439615Y10723880D01*
X4426762Y10697413D01*
X4426762Y10693349D01*
X4424476Y10691926D01*
X4423105Y10683595D01*
X4420158Y10672013D01*
X4417466Y10647629D01*
X4417466Y10636097D01*
X4420158Y10611662D01*
X4423105Y10600131D01*
X4424476Y10591749D01*
X4426762Y10590377D01*
X4426762Y10586313D01*
X4439615Y10559796D01*
X4445406Y10551363D01*
X4456023Y10537240D01*
X4472330Y10521645D01*
X4485538Y10510926D01*
X4487265Y10510926D01*
X4498035Y10503763D01*
X4510836Y10497769D01*
X4522419Y10493248D01*
X4532680Y10490504D01*
X4540402Y10488930D01*
X4560925Y10486237D01*
X4575048Y10486237D01*
X4595571Y10488930D01*
X4603292Y10490504D01*
X4613554Y10493248D01*
X4625086Y10497769D01*
X4637938Y10503763D01*
X4648657Y10510926D01*
X4650435Y10510926D01*
X4663592Y10521645D01*
X4679899Y10537240D01*
X4690567Y10551363D01*
X4696358Y10559796D01*
X4709160Y10586313D01*
X4709160Y10590377D01*
X4711446Y10591749D01*
X4712868Y10600131D01*
X4715814Y10611662D01*
X4718507Y10636097D01*
X4718507Y10647629D01*
X4715814Y10672013D01*
X4712868Y10683595D01*
X4711446Y10691926D01*
X4709160Y10693349D01*
X4709160Y10697413D01*
X4696358Y10723880D01*
X4690567Y10732363D01*
X4679899Y10746486D01*
X4663592Y10762081D01*
X4650435Y10772800D01*
X4648657Y10772800D01*
X4637938Y10779963D01*
X4625086Y10785957D01*
X4613554Y10790478D01*
X4603292Y10793222D01*
X4595571Y10794796D01*
X4573778Y10797235D01*
G37*
G36*
X4186072Y10798403D02*
G01*
X4155287Y10794796D01*
X4147565Y10793222D01*
X4137304Y10790478D01*
X4125772Y10785957D01*
X4112920Y10779963D01*
X4102201Y10772800D01*
X4100423Y10772800D01*
X4087266Y10762081D01*
X4070959Y10746486D01*
X4060342Y10732363D01*
X4054500Y10723880D01*
X4041698Y10697413D01*
X4041698Y10693349D01*
X4039412Y10691926D01*
X4038041Y10683595D01*
X4035094Y10672013D01*
X4032351Y10647629D01*
X4032351Y10636097D01*
X4035094Y10611662D01*
X4038041Y10600131D01*
X4039412Y10591749D01*
X4041698Y10590377D01*
X4041698Y10586313D01*
X4054500Y10559796D01*
X4060342Y10551363D01*
X4070959Y10537240D01*
X4087266Y10521645D01*
X4100423Y10510926D01*
X4102201Y10510926D01*
X4112920Y10503763D01*
X4125772Y10497769D01*
X4137304Y10493248D01*
X4147565Y10490504D01*
X4155287Y10488930D01*
X4175810Y10486237D01*
X4189933Y10486237D01*
X4210456Y10488930D01*
X4218178Y10490504D01*
X4228439Y10493248D01*
X4240022Y10497769D01*
X4252823Y10503763D01*
X4263593Y10510926D01*
X4265320Y10510926D01*
X4278528Y10521645D01*
X4294835Y10537240D01*
X4305452Y10551363D01*
X4311243Y10559796D01*
X4324096Y10586313D01*
X4324096Y10590377D01*
X4326382Y10591749D01*
X4327753Y10600131D01*
X4330700Y10611662D01*
X4333392Y10636097D01*
X4333392Y10647629D01*
X4330700Y10672013D01*
X4327753Y10683595D01*
X4326382Y10691926D01*
X4324096Y10693349D01*
X4324096Y10697413D01*
X4311243Y10723880D01*
X4305452Y10732363D01*
X4294835Y10746486D01*
X4278528Y10762081D01*
X4265320Y10772800D01*
X4263593Y10772800D01*
X4252823Y10779963D01*
X4240022Y10785957D01*
X4228439Y10790478D01*
X4218178Y10793222D01*
X4210456Y10794796D01*
X4188663Y10797235D01*
G37*
G36*
X5223256Y10689793D02*
G01*
X5222595Y10635081D01*
X5223560Y10634065D01*
X5262372Y10634776D01*
X5245608Y10657890D01*
G37*
G36*
X5623763Y10438942D02*
G01*
X5592978Y10435386D01*
X5585256Y10433761D01*
X5574995Y10431018D01*
X5563463Y10426547D01*
X5550611Y10420502D01*
X5539892Y10413339D01*
X5538114Y10413339D01*
X5524957Y10402620D01*
X5508650Y10387025D01*
X5497982Y10372953D01*
X5492191Y10364470D01*
X5479389Y10338003D01*
X5479389Y10333939D01*
X5477103Y10332516D01*
X5475681Y10324134D01*
X5472734Y10312603D01*
X5470042Y10288219D01*
X5470042Y10278364D01*
X5576773Y10278364D01*
X5582310Y10290048D01*
X5592419Y10299192D01*
X5601970Y10303306D01*
X5606389Y10305542D01*
X5638850Y10305542D01*
X5637225Y10320324D01*
X5635650Y10337647D01*
X5585968Y10337647D01*
X5584444Y10343642D01*
X5585256Y10353700D01*
X5652719Y10354360D01*
X5653786Y10351109D01*
X5655259Y10334447D01*
X5657443Y10300716D01*
X5659323Y10297668D01*
X5657799Y10291622D01*
X5649264Y10286339D01*
X5626354Y10288930D01*
X5612231Y10287254D01*
X5602833Y10282478D01*
X5597448Y10274960D01*
X5597448Y10252862D01*
X5608370Y10241991D01*
X5620359Y10238587D01*
X5637885Y10239756D01*
X5648147Y10242245D01*
X5658307Y10246563D01*
X5661660Y10245293D01*
X5661660Y10230205D01*
X5656935Y10225938D01*
X5653176Y10225938D01*
X5650738Y10223652D01*
X5639155Y10222026D01*
X5620105Y10220502D01*
X5605830Y10223804D01*
X5594248Y10229088D01*
X5582005Y10241280D01*
X5576824Y10253370D01*
X5576773Y10278364D01*
X5470042Y10278364D01*
X5470042Y10276636D01*
X5472734Y10252252D01*
X5475681Y10240721D01*
X5477103Y10232339D01*
X5479389Y10230916D01*
X5479389Y10226852D01*
X5492191Y10200386D01*
X5497982Y10191953D01*
X5508650Y10177830D01*
X5524957Y10162235D01*
X5538114Y10151516D01*
X5539892Y10151516D01*
X5550611Y10144353D01*
X5563463Y10138359D01*
X5574995Y10133838D01*
X5585256Y10131094D01*
X5592978Y10129520D01*
X5613501Y10126827D01*
X5627624Y10126827D01*
X5648147Y10129520D01*
X5655868Y10131094D01*
X5666130Y10133838D01*
X5677712Y10138359D01*
X5690514Y10144353D01*
X5701233Y10151516D01*
X5703011Y10151516D01*
X5716219Y10162235D01*
X5732475Y10177830D01*
X5743143Y10191953D01*
X5748934Y10200386D01*
X5761786Y10226852D01*
X5761786Y10230916D01*
X5764072Y10232339D01*
X5765444Y10240721D01*
X5768390Y10252252D01*
X5771083Y10276636D01*
X5771083Y10288219D01*
X5768390Y10312603D01*
X5765444Y10324134D01*
X5764072Y10332516D01*
X5761786Y10333939D01*
X5761786Y10338003D01*
X5748934Y10364470D01*
X5743143Y10372953D01*
X5732475Y10387025D01*
X5716219Y10402620D01*
X5703011Y10413339D01*
X5701233Y10413339D01*
X5690514Y10420502D01*
X5677712Y10426547D01*
X5666130Y10431018D01*
X5655868Y10433761D01*
X5648147Y10435386D01*
X5626354Y10437825D01*
G37*
G36*
X5238699Y10438942D02*
G01*
X5207863Y10435386D01*
X5200192Y10433761D01*
X5189880Y10431018D01*
X5178348Y10426547D01*
X5165496Y10420502D01*
X5154777Y10413339D01*
X5153050Y10413339D01*
X5139842Y10402620D01*
X5123535Y10387025D01*
X5112918Y10372953D01*
X5107127Y10364470D01*
X5094274Y10338003D01*
X5094274Y10333939D01*
X5091988Y10332516D01*
X5090617Y10324134D01*
X5087670Y10312603D01*
X5084927Y10288219D01*
X5084927Y10276636D01*
X5087670Y10252252D01*
X5090617Y10240721D01*
X5091988Y10232339D01*
X5094274Y10230916D01*
X5094274Y10226852D01*
X5107127Y10200386D01*
X5112918Y10191953D01*
X5123535Y10177830D01*
X5139842Y10162235D01*
X5153050Y10151516D01*
X5154777Y10151516D01*
X5165496Y10144353D01*
X5178348Y10138359D01*
X5189880Y10133838D01*
X5200192Y10131094D01*
X5207863Y10129520D01*
X5228386Y10126827D01*
X5242560Y10126827D01*
X5263083Y10129520D01*
X5270754Y10131094D01*
X5281066Y10133838D01*
X5292598Y10138359D01*
X5305450Y10144353D01*
X5316169Y10151516D01*
X5317896Y10151516D01*
X5331104Y10162235D01*
X5347411Y10177830D01*
X5358028Y10191953D01*
X5363819Y10200386D01*
X5376672Y10226852D01*
X5376672Y10230916D01*
X5378958Y10232339D01*
X5380329Y10240721D01*
X5383276Y10252252D01*
X5386019Y10276636D01*
X5386019Y10288219D01*
X5383276Y10312603D01*
X5380329Y10324134D01*
X5378958Y10332516D01*
X5376672Y10333939D01*
X5376672Y10338003D01*
X5363819Y10364470D01*
X5358028Y10372953D01*
X5347411Y10387025D01*
X5331104Y10402620D01*
X5317896Y10413339D01*
X5316169Y10413339D01*
X5305450Y10420502D01*
X5292598Y10426547D01*
X5281066Y10431018D01*
X5270754Y10433761D01*
X5263083Y10435386D01*
X5241239Y10437825D01*
G37*
G36*
X4571187Y10438942D02*
G01*
X4540402Y10435386D01*
X4532680Y10433761D01*
X4522419Y10431018D01*
X4510836Y10426547D01*
X4498035Y10420502D01*
X4487265Y10413339D01*
X4485538Y10413339D01*
X4472330Y10402620D01*
X4456023Y10387025D01*
X4445406Y10372953D01*
X4439615Y10364470D01*
X4426762Y10338003D01*
X4426762Y10333939D01*
X4424476Y10332516D01*
X4423105Y10324134D01*
X4420158Y10312603D01*
X4417466Y10288219D01*
X4417466Y10276636D01*
X4420158Y10252252D01*
X4423105Y10240721D01*
X4424476Y10232339D01*
X4426204Y10231272D01*
X4521606Y10231272D01*
X4524654Y10234930D01*
X4583582Y10234930D01*
X4543704Y10276636D01*
X4536084Y10287254D01*
X4530344Y10298480D01*
X4526584Y10316108D01*
X4529937Y10330586D01*
X4535576Y10339578D01*
X4541672Y10345166D01*
X4554880Y10351770D01*
X4582718Y10351566D01*
X4595571Y10346080D01*
X4609033Y10337393D01*
X4609033Y10333075D01*
X4601159Y10323525D01*
X4596536Y10323525D01*
X4593386Y10327284D01*
X4579162Y10334244D01*
X4559198Y10334244D01*
X4550003Y10327233D01*
X4550003Y10322052D01*
X4547108Y10316667D01*
X4550460Y10302341D01*
X4555490Y10292080D01*
X4569612Y10275366D01*
X4611725Y10232186D01*
X4610963Y10218877D01*
X4522419Y10218877D01*
X4521606Y10231272D01*
X4426204Y10231272D01*
X4426762Y10230916D01*
X4426762Y10226852D01*
X4439615Y10200386D01*
X4445406Y10191953D01*
X4456023Y10177830D01*
X4472330Y10162235D01*
X4485538Y10151516D01*
X4487265Y10151516D01*
X4498035Y10144353D01*
X4510836Y10138359D01*
X4522419Y10133838D01*
X4532680Y10131094D01*
X4540402Y10129520D01*
X4560925Y10126827D01*
X4575048Y10126827D01*
X4595571Y10129520D01*
X4603292Y10131094D01*
X4613554Y10133838D01*
X4625086Y10138359D01*
X4637938Y10144353D01*
X4648657Y10151516D01*
X4650435Y10151516D01*
X4663592Y10162235D01*
X4679899Y10177830D01*
X4690567Y10191953D01*
X4696358Y10200386D01*
X4709160Y10226852D01*
X4709160Y10230916D01*
X4711446Y10232339D01*
X4712868Y10240721D01*
X4715814Y10252252D01*
X4718507Y10276636D01*
X4718507Y10288219D01*
X4715814Y10312603D01*
X4712868Y10324134D01*
X4711446Y10332516D01*
X4709160Y10333939D01*
X4709160Y10338003D01*
X4696358Y10364470D01*
X4690567Y10372953D01*
X4679899Y10387025D01*
X4663592Y10402620D01*
X4650435Y10413339D01*
X4648657Y10413339D01*
X4637938Y10420502D01*
X4625086Y10426547D01*
X4613554Y10431018D01*
X4603292Y10433761D01*
X4595571Y10435386D01*
X4573778Y10437825D01*
G37*
G36*
X4186072Y10438942D02*
G01*
X4155287Y10435386D01*
X4147565Y10433761D01*
X4137304Y10431018D01*
X4125772Y10426547D01*
X4112920Y10420502D01*
X4102201Y10413339D01*
X4100423Y10413339D01*
X4087266Y10402620D01*
X4070959Y10387025D01*
X4060342Y10372953D01*
X4054500Y10364470D01*
X4041698Y10338003D01*
X4041698Y10333939D01*
X4039412Y10332516D01*
X4038041Y10324134D01*
X4035094Y10312603D01*
X4032351Y10288219D01*
X4032351Y10276636D01*
X4035094Y10252252D01*
X4038041Y10240721D01*
X4039412Y10232339D01*
X4041698Y10230916D01*
X4041698Y10226852D01*
X4045563Y10218877D01*
X4168140Y10218877D01*
X4168140Y10348518D01*
X4184802Y10349077D01*
X4218178Y10321950D01*
X4219041Y10319715D01*
X4209542Y10308082D01*
X4207713Y10308082D01*
X4188663Y10323423D01*
X4186783Y10323525D01*
X4186072Y10218877D01*
X4045563Y10218877D01*
X4054500Y10200386D01*
X4060342Y10191953D01*
X4070959Y10177830D01*
X4087266Y10162235D01*
X4100423Y10151516D01*
X4102201Y10151516D01*
X4112920Y10144353D01*
X4125772Y10138359D01*
X4137304Y10133838D01*
X4147565Y10131094D01*
X4155287Y10129520D01*
X4175810Y10126827D01*
X4189933Y10126827D01*
X4210456Y10129520D01*
X4218178Y10131094D01*
X4228439Y10133838D01*
X4240022Y10138359D01*
X4252823Y10144353D01*
X4263593Y10151516D01*
X4265320Y10151516D01*
X4278528Y10162235D01*
X4294835Y10177830D01*
X4305452Y10191953D01*
X4311243Y10200386D01*
X4324096Y10226852D01*
X4324096Y10230916D01*
X4326382Y10232339D01*
X4327753Y10240721D01*
X4330700Y10252252D01*
X4333392Y10276636D01*
X4333392Y10288219D01*
X4330700Y10312603D01*
X4327753Y10324134D01*
X4326382Y10332516D01*
X4324096Y10333939D01*
X4324096Y10338003D01*
X4311243Y10364470D01*
X4305452Y10372953D01*
X4294835Y10387025D01*
X4278528Y10402620D01*
X4265320Y10413339D01*
X4263593Y10413339D01*
X4252823Y10420502D01*
X4240022Y10426547D01*
X4228439Y10431018D01*
X4218178Y10433761D01*
X4210456Y10435386D01*
X4188663Y10437825D01*
G37*
G36*
X5623763Y10079532D02*
G01*
X5592978Y10075926D01*
X5585256Y10074351D01*
X5574995Y10071608D01*
X5563463Y10067086D01*
X5550611Y10061092D01*
X5539892Y10053929D01*
X5538114Y10053929D01*
X5524957Y10043210D01*
X5508650Y10027615D01*
X5497982Y10013492D01*
X5492191Y10005060D01*
X5479389Y9978593D01*
X5479389Y9974529D01*
X5477103Y9973106D01*
X5475681Y9964724D01*
X5472734Y9953193D01*
X5470042Y9928809D01*
X5470042Y9917226D01*
X5472734Y9892842D01*
X5475681Y9881311D01*
X5477103Y9872929D01*
X5479389Y9871506D01*
X5479389Y9867442D01*
X5492191Y9840976D01*
X5497982Y9832492D01*
X5508650Y9818370D01*
X5524957Y9802774D01*
X5538114Y9792055D01*
X5539892Y9792055D01*
X5550611Y9784943D01*
X5563463Y9778898D01*
X5574995Y9774377D01*
X5585256Y9771684D01*
X5592978Y9770059D01*
X5613501Y9767417D01*
X5627624Y9767417D01*
X5648147Y9770059D01*
X5655868Y9771684D01*
X5666130Y9774377D01*
X5677712Y9778898D01*
X5690514Y9784943D01*
X5701233Y9792055D01*
X5703011Y9792055D01*
X5716219Y9802774D01*
X5732475Y9818370D01*
X5743143Y9832492D01*
X5748934Y9840976D01*
X5761786Y9867442D01*
X5761786Y9871506D01*
X5764072Y9872929D01*
X5765444Y9881311D01*
X5768390Y9892842D01*
X5771083Y9917226D01*
X5771083Y9928809D01*
X5768390Y9953193D01*
X5765444Y9964724D01*
X5764072Y9973106D01*
X5761786Y9974529D01*
X5761786Y9978593D01*
X5748934Y10005060D01*
X5743143Y10013492D01*
X5732475Y10027615D01*
X5716219Y10043210D01*
X5703011Y10053929D01*
X5701233Y10053929D01*
X5690514Y10061092D01*
X5677712Y10067086D01*
X5666130Y10071608D01*
X5655868Y10074351D01*
X5648147Y10075926D01*
X5626354Y10078364D01*
G37*
G36*
X5238699Y10079532D02*
G01*
X5207863Y10075926D01*
X5200192Y10074351D01*
X5189880Y10071608D01*
X5178348Y10067086D01*
X5165496Y10061092D01*
X5154777Y10053929D01*
X5153050Y10053929D01*
X5139842Y10043210D01*
X5123535Y10027615D01*
X5112918Y10013492D01*
X5107127Y10005060D01*
X5094274Y9978593D01*
X5094274Y9974529D01*
X5091988Y9973106D01*
X5090617Y9964724D01*
X5087670Y9953193D01*
X5084927Y9928809D01*
X5084927Y9917226D01*
X5087670Y9892842D01*
X5090617Y9881311D01*
X5091988Y9872929D01*
X5094274Y9871506D01*
X5094274Y9867442D01*
X5107127Y9840976D01*
X5112918Y9832492D01*
X5123535Y9818370D01*
X5139842Y9802774D01*
X5153050Y9792055D01*
X5154777Y9792055D01*
X5165496Y9784943D01*
X5178348Y9778898D01*
X5189880Y9774377D01*
X5200192Y9771684D01*
X5207863Y9770059D01*
X5228386Y9767417D01*
X5242560Y9767417D01*
X5263083Y9770059D01*
X5270754Y9771684D01*
X5281066Y9774377D01*
X5292598Y9778898D01*
X5305450Y9784943D01*
X5316169Y9792055D01*
X5317896Y9792055D01*
X5331104Y9802774D01*
X5347411Y9818370D01*
X5358028Y9832492D01*
X5363819Y9840976D01*
X5376672Y9867442D01*
X5376672Y9871506D01*
X5379262Y9873081D01*
X5379262Y9972903D01*
X5376672Y9974529D01*
X5376672Y9978593D01*
X5363819Y10005060D01*
X5358028Y10013492D01*
X5347411Y10027615D01*
X5331104Y10043210D01*
X5317896Y10053929D01*
X5316169Y10053929D01*
X5305450Y10061092D01*
X5292598Y10067086D01*
X5281066Y10071608D01*
X5270754Y10074351D01*
X5263083Y10075926D01*
X5241239Y10078364D01*
G37*
G36*
X4571187Y10079532D02*
G01*
X4540402Y10075926D01*
X4532680Y10074351D01*
X4522419Y10071608D01*
X4510836Y10067086D01*
X4498035Y10061092D01*
X4487265Y10053929D01*
X4485538Y10053929D01*
X4472330Y10043210D01*
X4456023Y10027615D01*
X4445406Y10013492D01*
X4439615Y10005060D01*
X4426762Y9978593D01*
X4426762Y9974529D01*
X4424476Y9973106D01*
X4423105Y9964724D01*
X4420158Y9953193D01*
X4417466Y9928809D01*
X4417466Y9917226D01*
X4420158Y9892842D01*
X4423105Y9881311D01*
X4424476Y9872929D01*
X4426762Y9871506D01*
X4426762Y9867442D01*
X4439615Y9840976D01*
X4445406Y9832492D01*
X4456023Y9818370D01*
X4472330Y9802774D01*
X4485538Y9792055D01*
X4487265Y9792055D01*
X4498035Y9784943D01*
X4510836Y9778898D01*
X4522419Y9774377D01*
X4532680Y9771684D01*
X4540402Y9770059D01*
X4560925Y9767417D01*
X4575048Y9767417D01*
X4595571Y9770059D01*
X4603292Y9771684D01*
X4613554Y9774377D01*
X4625086Y9778898D01*
X4637938Y9784943D01*
X4648657Y9792055D01*
X4650435Y9792055D01*
X4663592Y9802774D01*
X4679899Y9818370D01*
X4690567Y9832492D01*
X4696358Y9840976D01*
X4709160Y9867442D01*
X4709160Y9871506D01*
X4711446Y9872929D01*
X4712868Y9881311D01*
X4715814Y9892842D01*
X4718507Y9917226D01*
X4718507Y9928809D01*
X4715814Y9953193D01*
X4712868Y9964724D01*
X4711446Y9973106D01*
X4709160Y9974529D01*
X4709160Y9978593D01*
X4696358Y10005060D01*
X4690567Y10013492D01*
X4679899Y10027615D01*
X4663592Y10043210D01*
X4650435Y10053929D01*
X4648657Y10053929D01*
X4637938Y10061092D01*
X4625086Y10067086D01*
X4613554Y10071608D01*
X4603292Y10074351D01*
X4595571Y10075926D01*
X4573778Y10078364D01*
G37*
G36*
X4186072Y10079532D02*
G01*
X4155287Y10075926D01*
X4147565Y10074351D01*
X4137304Y10071608D01*
X4125772Y10067086D01*
X4112920Y10061092D01*
X4102201Y10053929D01*
X4100423Y10053929D01*
X4087266Y10043210D01*
X4070959Y10027615D01*
X4060342Y10013492D01*
X4054500Y10005060D01*
X4041698Y9978593D01*
X4041698Y9974529D01*
X4039412Y9973106D01*
X4038041Y9964724D01*
X4035094Y9953193D01*
X4032351Y9928809D01*
X4032351Y9917226D01*
X4035094Y9892842D01*
X4038041Y9881311D01*
X4039412Y9872929D01*
X4041698Y9871506D01*
X4041698Y9867442D01*
X4054500Y9840976D01*
X4060342Y9832492D01*
X4070959Y9818370D01*
X4087266Y9802774D01*
X4100423Y9792055D01*
X4102201Y9792055D01*
X4112920Y9784943D01*
X4125772Y9778898D01*
X4137304Y9774377D01*
X4147565Y9771684D01*
X4155287Y9770059D01*
X4175810Y9767417D01*
X4189933Y9767417D01*
X4210456Y9770059D01*
X4218178Y9771684D01*
X4228439Y9774377D01*
X4240022Y9778898D01*
X4252823Y9784943D01*
X4263593Y9792055D01*
X4265320Y9792055D01*
X4278528Y9802774D01*
X4294835Y9818370D01*
X4305452Y9832492D01*
X4311243Y9840976D01*
X4324096Y9867442D01*
X4324096Y9871506D01*
X4326382Y9872929D01*
X4327753Y9881311D01*
X4330700Y9892842D01*
X4333392Y9917226D01*
X4333392Y9928809D01*
X4330700Y9953193D01*
X4327753Y9964724D01*
X4326382Y9973106D01*
X4324096Y9974529D01*
X4324096Y9978593D01*
X4311243Y10005060D01*
X4305452Y10013492D01*
X4294835Y10027615D01*
X4278528Y10043210D01*
X4265320Y10053929D01*
X4263593Y10053929D01*
X4252823Y10061092D01*
X4240022Y10067086D01*
X4228439Y10071608D01*
X4218178Y10074351D01*
X4210456Y10075926D01*
X4188663Y10078364D01*
G37*
G36*
X5238699Y9720122D02*
G01*
X5207863Y9716516D01*
X5200192Y9714941D01*
X5189880Y9712198D01*
X5178348Y9707676D01*
X5165496Y9701682D01*
X5154777Y9694519D01*
X5153050Y9694519D01*
X5139842Y9683800D01*
X5123535Y9668205D01*
X5112918Y9654082D01*
X5107127Y9645650D01*
X5094274Y9619132D01*
X5094274Y9615068D01*
X5091988Y9613696D01*
X5090617Y9605314D01*
X5087670Y9593732D01*
X5084927Y9569348D01*
X5084927Y9557816D01*
X5087670Y9533432D01*
X5090617Y9521850D01*
X5091988Y9513519D01*
X5094274Y9512096D01*
X5094274Y9508032D01*
X5107127Y9481566D01*
X5112918Y9473082D01*
X5123535Y9458960D01*
X5139842Y9443364D01*
X5153050Y9432645D01*
X5154777Y9432645D01*
X5165496Y9425482D01*
X5178348Y9419488D01*
X5189880Y9414967D01*
X5200192Y9412224D01*
X5207863Y9410649D01*
X5228386Y9407956D01*
X5242560Y9407956D01*
X5263083Y9410649D01*
X5270754Y9412224D01*
X5281066Y9414967D01*
X5292598Y9419488D01*
X5305450Y9425482D01*
X5316169Y9432645D01*
X5317896Y9432645D01*
X5331104Y9443364D01*
X5347411Y9458960D01*
X5358028Y9473082D01*
X5363819Y9481566D01*
X5376672Y9508032D01*
X5376672Y9512096D01*
X5378958Y9513519D01*
X5380329Y9521850D01*
X5383276Y9533432D01*
X5386019Y9557816D01*
X5386019Y9569348D01*
X5383276Y9593732D01*
X5380329Y9605314D01*
X5378958Y9613696D01*
X5376672Y9615068D01*
X5376672Y9619132D01*
X5363819Y9645650D01*
X5358028Y9654082D01*
X5347411Y9668205D01*
X5331104Y9683800D01*
X5317896Y9694519D01*
X5316169Y9694519D01*
X5305450Y9701682D01*
X5292598Y9707676D01*
X5281066Y9712198D01*
X5270754Y9714941D01*
X5263083Y9716516D01*
X5241239Y9718954D01*
G37*
G36*
X4571187Y9720122D02*
G01*
X4540402Y9716516D01*
X4532680Y9714941D01*
X4522419Y9712198D01*
X4510836Y9707676D01*
X4498035Y9701682D01*
X4487265Y9694519D01*
X4485538Y9694519D01*
X4472330Y9683800D01*
X4456023Y9668205D01*
X4445406Y9654082D01*
X4439615Y9645650D01*
X4426762Y9619132D01*
X4426762Y9615068D01*
X4424476Y9613696D01*
X4423105Y9605314D01*
X4420158Y9593732D01*
X4417466Y9569348D01*
X4417466Y9557816D01*
X4420158Y9533432D01*
X4423105Y9521850D01*
X4424476Y9513519D01*
X4426762Y9512096D01*
X4426762Y9508032D01*
X4439615Y9481566D01*
X4445406Y9473082D01*
X4456023Y9458960D01*
X4472330Y9443364D01*
X4485538Y9432645D01*
X4487265Y9432645D01*
X4498035Y9425482D01*
X4510836Y9419488D01*
X4522419Y9414967D01*
X4532680Y9412224D01*
X4540402Y9410649D01*
X4560925Y9407956D01*
X4575048Y9407956D01*
X4595571Y9410649D01*
X4603292Y9412224D01*
X4613554Y9414967D01*
X4625086Y9419488D01*
X4637938Y9425482D01*
X4648657Y9432645D01*
X4650435Y9432645D01*
X4663592Y9443364D01*
X4679899Y9458960D01*
X4690567Y9473082D01*
X4696358Y9481566D01*
X4709160Y9508032D01*
X4709160Y9512096D01*
X4711446Y9513519D01*
X4712868Y9521850D01*
X4715814Y9533432D01*
X4718507Y9557816D01*
X4718507Y9569348D01*
X4715814Y9593732D01*
X4712868Y9605314D01*
X4711446Y9613696D01*
X4709160Y9615068D01*
X4709160Y9619132D01*
X4696358Y9645650D01*
X4690567Y9654082D01*
X4679899Y9668205D01*
X4663592Y9683800D01*
X4650435Y9694519D01*
X4648657Y9694519D01*
X4637938Y9701682D01*
X4625086Y9707676D01*
X4613554Y9712198D01*
X4603292Y9714941D01*
X4595571Y9716516D01*
X4573778Y9718954D01*
G37*
G36*
X4186072Y9720122D02*
G01*
X4155287Y9716516D01*
X4147565Y9714941D01*
X4137304Y9712198D01*
X4125772Y9707676D01*
X4112920Y9701682D01*
X4102201Y9694519D01*
X4100423Y9694519D01*
X4087266Y9683800D01*
X4070959Y9668205D01*
X4060342Y9654082D01*
X4054500Y9645650D01*
X4041698Y9619132D01*
X4041698Y9615068D01*
X4039412Y9613696D01*
X4038041Y9605314D01*
X4035094Y9593732D01*
X4032351Y9569348D01*
X4032351Y9557816D01*
X4035094Y9533432D01*
X4038041Y9521850D01*
X4039412Y9513519D01*
X4041698Y9512096D01*
X4041698Y9508032D01*
X4054500Y9481566D01*
X4060342Y9473082D01*
X4070959Y9458960D01*
X4087266Y9443364D01*
X4100423Y9432645D01*
X4102201Y9432645D01*
X4112920Y9425482D01*
X4125772Y9419488D01*
X4137304Y9414967D01*
X4147565Y9412224D01*
X4155287Y9410649D01*
X4175810Y9407956D01*
X4189933Y9407956D01*
X4210456Y9410649D01*
X4218178Y9412224D01*
X4228439Y9414967D01*
X4240022Y9419488D01*
X4252823Y9425482D01*
X4263593Y9432645D01*
X4265320Y9432645D01*
X4278528Y9443364D01*
X4294835Y9458960D01*
X4305452Y9473082D01*
X4311243Y9481566D01*
X4324096Y9508032D01*
X4324096Y9512096D01*
X4326382Y9513519D01*
X4327753Y9521850D01*
X4330700Y9533432D01*
X4333392Y9557816D01*
X4333392Y9569348D01*
X4330700Y9593732D01*
X4327753Y9605314D01*
X4326382Y9613696D01*
X4324096Y9615068D01*
X4324096Y9619132D01*
X4311243Y9645650D01*
X4305452Y9654082D01*
X4294835Y9668205D01*
X4278528Y9683800D01*
X4265320Y9694519D01*
X4263593Y9694519D01*
X4252823Y9701682D01*
X4240022Y9707676D01*
X4228439Y9712198D01*
X4218178Y9714941D01*
X4210456Y9716516D01*
X4188663Y9718954D01*
G37*
G36*
X4571187Y9360712D02*
G01*
X4540402Y9357106D01*
X4532680Y9355531D01*
X4522419Y9352788D01*
X4510836Y9348266D01*
X4498035Y9342272D01*
X4487265Y9335109D01*
X4485538Y9335109D01*
X4472330Y9324390D01*
X4456023Y9308795D01*
X4445406Y9294672D01*
X4439615Y9286240D01*
X4426762Y9259722D01*
X4426762Y9255658D01*
X4424476Y9254236D01*
X4423105Y9245904D01*
X4420158Y9234322D01*
X4417466Y9209938D01*
X4417466Y9198406D01*
X4420158Y9174022D01*
X4423105Y9162440D01*
X4424476Y9154109D01*
X4426762Y9152686D01*
X4426762Y9148622D01*
X4439615Y9122105D01*
X4445406Y9113672D01*
X4456023Y9099550D01*
X4472330Y9083954D01*
X4485538Y9073235D01*
X4487265Y9073235D01*
X4498035Y9066072D01*
X4510836Y9060078D01*
X4522419Y9055557D01*
X4532680Y9052814D01*
X4540402Y9051239D01*
X4560925Y9048546D01*
X4575048Y9048546D01*
X4595571Y9051239D01*
X4603292Y9052814D01*
X4613554Y9055557D01*
X4625086Y9060078D01*
X4637938Y9066072D01*
X4648657Y9073235D01*
X4650435Y9073235D01*
X4663592Y9083954D01*
X4679899Y9099550D01*
X4690567Y9113672D01*
X4696358Y9122105D01*
X4709160Y9148622D01*
X4709160Y9152686D01*
X4711446Y9154109D01*
X4712868Y9162440D01*
X4715814Y9174022D01*
X4718507Y9198406D01*
X4718507Y9209938D01*
X4715814Y9234322D01*
X4712868Y9245904D01*
X4711446Y9254236D01*
X4709160Y9255658D01*
X4709160Y9259722D01*
X4696358Y9286240D01*
X4690567Y9294672D01*
X4679899Y9308795D01*
X4663592Y9324390D01*
X4650435Y9335109D01*
X4648657Y9335109D01*
X4637938Y9342272D01*
X4625086Y9348266D01*
X4613554Y9352788D01*
X4603292Y9355531D01*
X4595571Y9357106D01*
X4573778Y9359544D01*
G37*
G36*
X4186072Y9360712D02*
G01*
X4155287Y9357106D01*
X4147565Y9355531D01*
X4137304Y9352788D01*
X4125772Y9348266D01*
X4112920Y9342272D01*
X4102201Y9335109D01*
X4100423Y9335109D01*
X4087266Y9324390D01*
X4070959Y9308795D01*
X4060342Y9294672D01*
X4054500Y9286240D01*
X4041698Y9259722D01*
X4041698Y9255658D01*
X4039412Y9254236D01*
X4038041Y9245904D01*
X4035094Y9234322D01*
X4032351Y9209938D01*
X4032351Y9198406D01*
X4035094Y9174022D01*
X4038041Y9162440D01*
X4039412Y9154109D01*
X4041698Y9152686D01*
X4041698Y9148622D01*
X4054500Y9122105D01*
X4060342Y9113672D01*
X4070959Y9099550D01*
X4087266Y9083954D01*
X4100423Y9073235D01*
X4102201Y9073235D01*
X4112920Y9066072D01*
X4125772Y9060078D01*
X4137304Y9055557D01*
X4147565Y9052814D01*
X4155287Y9051239D01*
X4175810Y9048546D01*
X4189933Y9048546D01*
X4210456Y9051239D01*
X4218178Y9052814D01*
X4228439Y9055557D01*
X4240022Y9060078D01*
X4252823Y9066072D01*
X4263593Y9073235D01*
X4265320Y9073235D01*
X4278528Y9083954D01*
X4294835Y9099550D01*
X4305452Y9113672D01*
X4311243Y9122105D01*
X4324096Y9148622D01*
X4324096Y9152686D01*
X4326382Y9154109D01*
X4327753Y9162440D01*
X4330700Y9174022D01*
X4333392Y9198406D01*
X4333392Y9209938D01*
X4330700Y9234322D01*
X4327753Y9245904D01*
X4326382Y9254236D01*
X4324096Y9255658D01*
X4324096Y9259722D01*
X4311243Y9286240D01*
X4305452Y9294672D01*
X4294835Y9308795D01*
X4278528Y9324390D01*
X4265320Y9335109D01*
X4263593Y9335109D01*
X4252823Y9342272D01*
X4240022Y9348266D01*
X4228439Y9352788D01*
X4218178Y9355531D01*
X4210456Y9357106D01*
X4188663Y9359544D01*
G37*
G36*
X4186072Y9014104D02*
G01*
X4155287Y9010497D01*
X4147565Y9008922D01*
X4137304Y9006179D01*
X4125772Y9001658D01*
X4112920Y8995664D01*
X4102201Y8988501D01*
X4100423Y8988501D01*
X4087266Y8977782D01*
X4070959Y8962186D01*
X4060342Y8948064D01*
X4054500Y8939631D01*
X4041698Y8913164D01*
X4041698Y8909100D01*
X4039412Y8907678D01*
X4038041Y8899296D01*
X4035094Y8887764D01*
X4032351Y8863380D01*
X4032351Y8851798D01*
X4035094Y8827414D01*
X4038041Y8815882D01*
X4039412Y8807500D01*
X4041698Y8806078D01*
X4041698Y8802014D01*
X4054500Y8775547D01*
X4060342Y8767114D01*
X4070959Y8752992D01*
X4087266Y8737396D01*
X4100423Y8726678D01*
X4102201Y8726678D01*
X4112920Y8719515D01*
X4125772Y8713470D01*
X4137304Y8708999D01*
X4147565Y8706256D01*
X4155287Y8704681D01*
X4175810Y8701989D01*
X4189933Y8701989D01*
X4210456Y8704681D01*
X4218178Y8706256D01*
X4228439Y8708999D01*
X4240022Y8713470D01*
X4252823Y8719515D01*
X4263593Y8726678D01*
X4265320Y8726678D01*
X4278528Y8737396D01*
X4294835Y8752992D01*
X4305452Y8767114D01*
X4311243Y8775547D01*
X4324096Y8802014D01*
X4324096Y8806078D01*
X4326382Y8807500D01*
X4327753Y8815882D01*
X4330700Y8827414D01*
X4333392Y8851798D01*
X4333392Y8863380D01*
X4330700Y8887764D01*
X4327753Y8899296D01*
X4326382Y8907678D01*
X4324096Y8909100D01*
X4324096Y8913164D01*
X4311243Y8939631D01*
X4305452Y8948064D01*
X4294835Y8962186D01*
X4278528Y8977782D01*
X4265320Y8988501D01*
X4263593Y8988501D01*
X4252823Y8995664D01*
X4240022Y9001658D01*
X4228439Y9006179D01*
X4218178Y9008922D01*
X4210456Y9010497D01*
X4188663Y9012986D01*
G37*
D10*
X2480391Y10403837D02*
G01*
X2527300Y10338165D01*
X2456936Y10338165D01*
X2480391Y10403837D02*
G01*
X2480391Y10305328D01*
X2355611Y10380383D02*
G01*
X2360302Y10389765D01*
X2369685Y10399148D01*
X2379068Y10403837D01*
X2397831Y10403837D01*
X2407211Y10399148D01*
X2416594Y10389765D01*
X2421285Y10380383D01*
X2425976Y10366311D01*
X2425976Y10342857D01*
X2421285Y10328783D01*
X2416594Y10319402D01*
X2407211Y10310020D01*
X2397831Y10305328D01*
X2379068Y10305328D01*
X2369685Y10310020D01*
X2360302Y10319402D01*
X2355611Y10328783D01*
X2355611Y10342857D01*
X2379068Y10342857D02*
G01*
X2355611Y10342857D01*
X2324651Y10403837D02*
G01*
X2324651Y10305328D01*
X2324651Y10403837D02*
G01*
X2282433Y10403837D01*
X2268362Y10399148D01*
X2263670Y10394457D01*
X2258979Y10385074D01*
X2258979Y10375691D01*
X2263670Y10366311D01*
X2268362Y10361620D01*
X2282433Y10356928D01*
X2324651Y10356928D02*
G01*
X2282433Y10356928D01*
X2268362Y10352237D01*
X2263670Y10347548D01*
X2258979Y10338165D01*
X2258979Y10324091D01*
X2263670Y10314711D01*
X2268362Y10310020D01*
X2282433Y10305328D01*
X2324651Y10305328D01*
X2155779Y10403837D02*
G01*
X2155779Y10305328D01*
X2155779Y10403837D02*
G01*
X2122942Y10403837D01*
X2108870Y10399148D01*
X2099487Y10389765D01*
X2094796Y10380383D01*
X2090107Y10366311D01*
X2090107Y10342857D01*
X2094796Y10328783D01*
X2099487Y10319402D01*
X2108870Y10310020D01*
X2122942Y10305328D01*
X2155779Y10305328D01*
X2059147Y10403837D02*
G01*
X2059147Y10305328D01*
X1990658Y10403837D02*
G01*
X2028187Y10305328D01*
X1990658Y10403837D02*
G01*
X1953130Y10305328D01*
X2014113Y10338165D02*
G01*
X1967204Y10338165D01*
X1851807Y10380383D02*
G01*
X1856498Y10389765D01*
X1865881Y10399148D01*
X1875261Y10403837D01*
X1894027Y10403837D01*
X1903407Y10399148D01*
X1912790Y10389765D01*
X1917481Y10380383D01*
X1922170Y10366311D01*
X1922170Y10342857D01*
X1917481Y10328783D01*
X1912790Y10319402D01*
X1903407Y10310020D01*
X1894027Y10305328D01*
X1875261Y10305328D01*
X1865881Y10310020D01*
X1856498Y10319402D01*
X1851807Y10328783D01*
X1851807Y10342857D01*
X1875261Y10342857D02*
G01*
X1851807Y10342857D01*
X1820847Y10403837D02*
G01*
X1820847Y10305328D01*
X1820847Y10403837D02*
G01*
X1778629Y10403837D01*
X1764555Y10399148D01*
X1759866Y10394457D01*
X1755175Y10385074D01*
X1755175Y10375691D01*
X1759866Y10366311D01*
X1764555Y10361620D01*
X1778629Y10356928D01*
X1820847Y10356928D01*
X1788010Y10356928D02*
G01*
X1755175Y10305328D01*
X1686687Y10403837D02*
G01*
X1724215Y10305328D01*
X1686687Y10403837D02*
G01*
X1649161Y10305328D01*
X1710141Y10338165D02*
G01*
X1663232Y10338165D01*
X1618200Y10403837D02*
G01*
X1618200Y10305328D01*
X1618200Y10403837D02*
G01*
X1580672Y10305328D01*
X1543146Y10403837D02*
G01*
X1580672Y10305328D01*
X1543146Y10403837D02*
G01*
X1543146Y10305328D01*
X5626100Y11515374D02*
G01*
X5616717Y11520065D01*
X5602645Y11534137D01*
X5602645Y11435628D01*
X5515394Y11520065D02*
G01*
X5520085Y11529448D01*
X5534157Y11534137D01*
X5543539Y11534137D01*
X5557611Y11529448D01*
X5566994Y11515374D01*
X5571685Y11491920D01*
X5571685Y11468465D01*
X5566994Y11449702D01*
X5557611Y11440320D01*
X5543539Y11435628D01*
X5538848Y11435628D01*
X5524776Y11440320D01*
X5515394Y11449702D01*
X5510702Y11463774D01*
X5510702Y11468465D01*
X5515394Y11482537D01*
X5524776Y11491920D01*
X5538848Y11496611D01*
X5543539Y11496611D01*
X5557611Y11491920D01*
X5566994Y11482537D01*
X5571685Y11468465D01*
X5479742Y11534137D02*
G01*
X5479742Y11435628D01*
X5479742Y11534137D02*
G01*
X5442216Y11435628D01*
X5404688Y11534137D02*
G01*
X5442216Y11435628D01*
X5404688Y11534137D02*
G01*
X5404688Y11435628D01*
X5373728Y11534137D02*
G01*
X5373728Y11435628D01*
X5373728Y11534137D02*
G01*
X5331510Y11534137D01*
X5317436Y11529448D01*
X5312747Y11524757D01*
X5308056Y11515374D01*
X5308056Y11505991D01*
X5312747Y11496611D01*
X5317436Y11491920D01*
X5331510Y11487228D01*
X5373728Y11487228D02*
G01*
X5331510Y11487228D01*
X5317436Y11482537D01*
X5312747Y11477848D01*
X5308056Y11468465D01*
X5308056Y11454391D01*
X5312747Y11445011D01*
X5317436Y11440320D01*
X5331510Y11435628D01*
X5373728Y11435628D01*
X5120419Y11552902D02*
G01*
X5204856Y11402791D01*
X5017218Y11534137D02*
G01*
X5017218Y11435628D01*
X5017218Y11534137D02*
G01*
X4975001Y11534137D01*
X4960927Y11529448D01*
X4956235Y11524757D01*
X4951547Y11515374D01*
X4951547Y11505991D01*
X4956235Y11496611D01*
X4960927Y11491920D01*
X4975001Y11487228D01*
X5017218Y11487228D02*
G01*
X4975001Y11487228D01*
X4960927Y11482537D01*
X4956235Y11477848D01*
X4951547Y11468465D01*
X4951547Y11454391D01*
X4956235Y11445011D01*
X4960927Y11440320D01*
X4975001Y11435628D01*
X5017218Y11435628D01*
X4920587Y11534137D02*
G01*
X4920587Y11435628D01*
X4920587Y11534137D02*
G01*
X4878367Y11534137D01*
X4864295Y11529448D01*
X4859604Y11524757D01*
X4854912Y11515374D01*
X4854912Y11505991D01*
X4859604Y11496611D01*
X4864295Y11491920D01*
X4878367Y11487228D01*
X4920587Y11487228D02*
G01*
X4878367Y11487228D01*
X4864295Y11482537D01*
X4859604Y11477848D01*
X4854912Y11468465D01*
X4854912Y11454391D01*
X4859604Y11445011D01*
X4864295Y11440320D01*
X4878367Y11435628D01*
X4920587Y11435628D01*
X4751712Y11534137D02*
G01*
X4751712Y11435628D01*
X4751712Y11534137D02*
G01*
X4718875Y11534137D01*
X4704803Y11529448D01*
X4695421Y11520065D01*
X4690729Y11510683D01*
X4686040Y11496611D01*
X4686040Y11473157D01*
X4690729Y11459083D01*
X4695421Y11449702D01*
X4704803Y11440320D01*
X4718875Y11435628D01*
X4751712Y11435628D01*
X4655080Y11534137D02*
G01*
X4655080Y11435628D01*
X4586592Y11534137D02*
G01*
X4624120Y11435628D01*
X4586592Y11534137D02*
G01*
X4549066Y11435628D01*
X4610046Y11468465D02*
G01*
X4563137Y11468465D01*
X4447740Y11510683D02*
G01*
X4452432Y11520065D01*
X4461814Y11529448D01*
X4471195Y11534137D01*
X4489960Y11534137D01*
X4499340Y11529448D01*
X4508723Y11520065D01*
X4513414Y11510683D01*
X4518106Y11496611D01*
X4518106Y11473157D01*
X4513414Y11459083D01*
X4508723Y11449702D01*
X4499340Y11440320D01*
X4489960Y11435628D01*
X4471195Y11435628D01*
X4461814Y11440320D01*
X4452432Y11449702D01*
X4447740Y11459083D01*
X4447740Y11473157D01*
X4471195Y11473157D02*
G01*
X4447740Y11473157D01*
X4416780Y11534137D02*
G01*
X4416780Y11435628D01*
X4416780Y11534137D02*
G01*
X4374563Y11534137D01*
X4360489Y11529448D01*
X4355800Y11524757D01*
X4351108Y11515374D01*
X4351108Y11505991D01*
X4355800Y11496611D01*
X4360489Y11491920D01*
X4374563Y11487228D01*
X4416780Y11487228D01*
X4383946Y11487228D02*
G01*
X4351108Y11435628D01*
X4282620Y11534137D02*
G01*
X4320148Y11435628D01*
X4282620Y11534137D02*
G01*
X4245094Y11435628D01*
X4306074Y11468465D02*
G01*
X4259165Y11468465D01*
X4214134Y11534137D02*
G01*
X4214134Y11435628D01*
X4214134Y11534137D02*
G01*
X4176605Y11435628D01*
X4139079Y11534137D02*
G01*
X4176605Y11435628D01*
X4139079Y11534137D02*
G01*
X4139079Y11435628D01*
D11*
X3144908Y9922383D02*
G01*
X3149600Y9917691D01*
X3144908Y9913002D01*
X3140217Y9917691D01*
X3144908Y9922383D01*
D12*
X2019300Y13118409D02*
G01*
X2019300Y13022953D01*
X2019300Y13118409D02*
G01*
X1978390Y13118409D01*
X1964753Y13113862D01*
X1960209Y13109318D01*
X1955662Y13100227D01*
X1955662Y13086590D01*
X1960209Y13077499D01*
X1964753Y13072953D01*
X1978390Y13068409D01*
X2019300Y13068409D01*
X1925662Y13086590D02*
G01*
X1925662Y13022953D01*
X1925662Y13059318D02*
G01*
X1921118Y13072953D01*
X1912028Y13082046D01*
X1902937Y13086590D01*
X1889300Y13086590D01*
X1836572Y13086590D02*
G01*
X1845663Y13082046D01*
X1854753Y13072953D01*
X1859300Y13059318D01*
X1859300Y13050227D01*
X1854753Y13036590D01*
X1845663Y13027499D01*
X1836572Y13022953D01*
X1822937Y13022953D01*
X1813847Y13027499D01*
X1804753Y13036590D01*
X1800209Y13050227D01*
X1800209Y13059318D01*
X1804753Y13072953D01*
X1813847Y13082046D01*
X1822937Y13086590D01*
X1836572Y13086590D01*
X1756572Y13118409D02*
G01*
X1756572Y13041137D01*
X1752028Y13027499D01*
X1742937Y13022953D01*
X1733847Y13022953D01*
X1770209Y13086590D02*
G01*
X1738391Y13086590D01*
X1681119Y13086590D02*
G01*
X1690209Y13082046D01*
X1699300Y13072953D01*
X1703847Y13059318D01*
X1703847Y13050227D01*
X1699300Y13036590D01*
X1690209Y13027499D01*
X1681119Y13022953D01*
X1667482Y13022953D01*
X1658391Y13027499D01*
X1649300Y13036590D01*
X1644754Y13050227D01*
X1644754Y13059318D01*
X1649300Y13072953D01*
X1658391Y13082046D01*
X1667482Y13086590D01*
X1681119Y13086590D01*
X1601119Y13118409D02*
G01*
X1601119Y13041137D01*
X1596572Y13027499D01*
X1587482Y13022953D01*
X1578391Y13022953D01*
X1614754Y13086590D02*
G01*
X1582938Y13086590D01*
X1543847Y13086590D02*
G01*
X1516573Y13022953D01*
X1489301Y13086590D02*
G01*
X1516573Y13022953D01*
X1525663Y13004772D01*
X1534754Y12995681D01*
X1543847Y12991137D01*
X1548391Y12991137D01*
X1459301Y13086590D02*
G01*
X1459301Y12991137D01*
X1459301Y13072953D02*
G01*
X1450210Y13082046D01*
X1441119Y13086590D01*
X1427482Y13086590D01*
X1418391Y13082046D01*
X1409301Y13072953D01*
X1404754Y13059318D01*
X1404754Y13050227D01*
X1409301Y13036590D01*
X1418391Y13027499D01*
X1427482Y13022953D01*
X1441119Y13022953D01*
X1450210Y13027499D01*
X1459301Y13036590D01*
X1374754Y13059318D02*
G01*
X1320210Y13059318D01*
X1320210Y13068409D01*
X1324754Y13077499D01*
X1329301Y13082046D01*
X1338392Y13086590D01*
X1352029Y13086590D01*
X1361119Y13082046D01*
X1370210Y13072953D01*
X1374754Y13059318D01*
X1374754Y13050227D01*
X1370210Y13036590D01*
X1361119Y13027499D01*
X1352029Y13022953D01*
X1338392Y13022953D01*
X1329301Y13027499D01*
X1320210Y13036590D01*
X1220210Y13086590D02*
G01*
X1192938Y13022953D01*
X1165664Y13086590D02*
G01*
X1192938Y13022953D01*
X1108392Y13118409D02*
G01*
X1122029Y13113862D01*
X1131120Y13100227D01*
X1135664Y13077499D01*
X1135664Y13063862D01*
X1131120Y13041137D01*
X1122029Y13027499D01*
X1108392Y13022953D01*
X1099301Y13022953D01*
X1085664Y13027499D01*
X1076573Y13041137D01*
X1072029Y13063862D01*
X1072029Y13077499D01*
X1076573Y13100227D01*
X1085664Y13113862D01*
X1099301Y13118409D01*
X1108392Y13118409D01*
X1037483Y13045681D02*
G01*
X1042029Y13041137D01*
X1037483Y13036590D01*
X1032939Y13041137D01*
X1037483Y13045681D01*
X975664Y13118409D02*
G01*
X989302Y13113862D01*
X998392Y13100227D01*
X1002939Y13077499D01*
X1002939Y13063862D01*
X998392Y13041137D01*
X989302Y13027499D01*
X975664Y13022953D01*
X966574Y13022953D01*
X952939Y13027499D01*
X943848Y13041137D01*
X939302Y13063862D01*
X939302Y13077499D01*
X943848Y13100227D01*
X952939Y13113862D01*
X966574Y13118409D01*
X975664Y13118409D01*
X909302Y13100227D02*
G01*
X900211Y13104771D01*
X886574Y13118409D01*
X886574Y13022953D01*
M02*
