G04 Layer: BottomLayer*
G04 EasyEDA v6.5.42, 2024-04-10 10:33:45*
G04 677a2e3dccde402284f6343da6576b70,88035802e6a84ff2a66c0cebeecd398b,10*
G04 Gerber Generator version 0.2*
G04 Scale: 100 percent, Rotated: No, Reflected: No *
G04 Dimensions in millimeters *
G04 leading zeros omitted , absolute positions ,4 integer and 5 decimal *
%FSLAX45Y45*%
%MOMM*%

%ADD10C,0.3500*%
%ADD11C,0.2540*%
%ADD12R,1.6500X1.6500*%
%ADD13C,1.6500*%
%ADD14C,1.5080*%
%ADD15C,0.6200*%

%LPD*%
D10*
X3810000Y11442700D02*
G01*
X4711700Y11442700D01*
X3302000Y10896600D02*
G01*
X5473700Y10896600D01*
X3049193Y10693400D02*
G01*
X4950307Y10693400D01*
X4963007Y10706100D01*
D11*
X1155700Y10121900D02*
G01*
X1153007Y10119207D01*
X1153007Y10117810D01*
X1409700Y10121900D02*
G01*
X1407007Y10119207D01*
X1407007Y10117810D01*
X1663700Y10121900D02*
G01*
X1661007Y10119207D01*
X1661007Y10117810D01*
X1917700Y10121900D02*
G01*
X1915007Y10119207D01*
X1915007Y10117810D01*
X2171700Y10121900D02*
G01*
X2169007Y10119207D01*
X2169007Y10117810D01*
X2425700Y10121900D02*
G01*
X2423007Y10119207D01*
X2423007Y10117810D01*
X2679700Y10121900D02*
G01*
X2677007Y10119207D01*
X2677007Y10117810D01*
X2933700Y10121900D02*
G01*
X2931007Y10119207D01*
X2931007Y10117810D01*
X3187700Y10121900D02*
G01*
X3185007Y10119207D01*
X3185007Y10117810D01*
X3441700Y10121900D02*
G01*
X3439007Y10119207D01*
X3439007Y10117810D01*
X3695700Y10121900D02*
G01*
X3693007Y10119207D01*
X3693007Y10117810D01*
X3949700Y10121900D02*
G01*
X3947007Y10119207D01*
X3947007Y10117810D01*
X4203700Y10121900D02*
G01*
X4201007Y10119207D01*
X4201007Y10117810D01*
X4457700Y10121900D02*
G01*
X4455007Y10119207D01*
X4455007Y10117810D01*
X4711700Y10121900D02*
G01*
X4709007Y10119207D01*
X4709007Y10117810D01*
X4965700Y10121900D02*
G01*
X4963007Y10119207D01*
X4963007Y10117810D01*
X5219700Y10121900D02*
G01*
X5217007Y10119207D01*
X5217007Y10117810D01*
X5473700Y10121900D02*
G01*
X5471007Y10119207D01*
X5471007Y10117810D01*
X5727700Y10121900D02*
G01*
X5725007Y10119207D01*
X5725007Y10117810D01*
X901700Y11887200D02*
G01*
X899007Y11889892D01*
X899007Y11895810D01*
X1155700Y11887200D02*
G01*
X1153007Y11889892D01*
X1153007Y11895810D01*
X1409700Y11887200D02*
G01*
X1407007Y11889892D01*
X1407007Y11895810D01*
X1663700Y11887200D02*
G01*
X1661007Y11889892D01*
X1661007Y11895810D01*
X1917700Y11887200D02*
G01*
X1915007Y11889892D01*
X1915007Y11895810D01*
X2171700Y11887200D02*
G01*
X2169007Y11889892D01*
X2169007Y11895810D01*
X2425700Y11887200D02*
G01*
X2423007Y11889892D01*
X2423007Y11895810D01*
X2679700Y11887200D02*
G01*
X2677007Y11889892D01*
X2677007Y11895810D01*
X2933700Y11887200D02*
G01*
X2931007Y11889892D01*
X2931007Y11895810D01*
X3187700Y11887200D02*
G01*
X3185007Y11889892D01*
X3185007Y11895810D01*
X3441700Y11887200D02*
G01*
X3439007Y11889892D01*
X3439007Y11895810D01*
X3695700Y11887200D02*
G01*
X3693007Y11889892D01*
X3693007Y11895810D01*
X3949700Y11887200D02*
G01*
X3947007Y11889892D01*
X3947007Y11895810D01*
X4201007Y11887200D02*
G01*
X4201007Y11895810D01*
X4201007Y11887200D02*
G01*
X4203700Y11887200D01*
X4457700Y11887200D02*
G01*
X4455007Y11889892D01*
X4455007Y11895810D01*
X4711700Y11887200D02*
G01*
X4709007Y11889892D01*
X4709007Y11895810D01*
X4965700Y11887200D02*
G01*
X4963007Y11889892D01*
X4963007Y11895810D01*
X5219700Y11887200D02*
G01*
X5217007Y11889892D01*
X5217007Y11895810D01*
X5473700Y11887200D02*
G01*
X5471007Y11889892D01*
X5471007Y11895810D01*
X5727700Y11887200D02*
G01*
X5725007Y11889892D01*
X5725007Y11895810D01*
D10*
X3556000Y11188700D02*
G01*
X5727700Y11188700D01*
D12*
G01*
X901700Y11887200D03*
D13*
G01*
X1155700Y11887200D03*
G01*
X1409700Y11887200D03*
G01*
X1663700Y11887200D03*
G01*
X1917700Y11887200D03*
G01*
X2171700Y11887200D03*
G01*
X2425700Y11887200D03*
G01*
X2679700Y11887200D03*
G01*
X2933700Y11887200D03*
G01*
X3187700Y11887200D03*
G01*
X3441700Y11887200D03*
G01*
X3695700Y11887200D03*
G01*
X3949700Y11887200D03*
G01*
X4203700Y11887200D03*
G01*
X4457700Y11887200D03*
G01*
X4711700Y11887200D03*
G01*
X4965700Y11887200D03*
G01*
X5219700Y11887200D03*
G01*
X5473700Y11887200D03*
G01*
X5727700Y11887200D03*
D12*
G01*
X901700Y10121900D03*
D13*
G01*
X1155700Y10121900D03*
G01*
X1409700Y10121900D03*
G01*
X1663700Y10121900D03*
G01*
X1917700Y10121900D03*
G01*
X2171700Y10121900D03*
G01*
X2425700Y10121900D03*
G01*
X2679700Y10121900D03*
G01*
X2933700Y10121900D03*
G01*
X3187700Y10121900D03*
G01*
X3441700Y10121900D03*
G01*
X3695700Y10121900D03*
G01*
X3949700Y10121900D03*
G01*
X4203700Y10121900D03*
G01*
X4457700Y10121900D03*
G01*
X4711700Y10121900D03*
G01*
X4965700Y10121900D03*
G01*
X5219700Y10121900D03*
G01*
X5473700Y10121900D03*
G01*
X5727700Y10121900D03*
D14*
G01*
X899007Y10117810D03*
G01*
X1153007Y10117810D03*
G01*
X1407007Y10117810D03*
G01*
X1661007Y10117810D03*
G01*
X1915007Y10117810D03*
G01*
X2169007Y10117810D03*
G01*
X2423007Y10117810D03*
G01*
X2677007Y10117810D03*
G01*
X2931007Y10117810D03*
G01*
X3185007Y10117810D03*
G01*
X3439007Y10117810D03*
G01*
X3693007Y10117810D03*
G01*
X3947007Y10117810D03*
G01*
X4201007Y10117810D03*
G01*
X4455007Y10117810D03*
G01*
X4709007Y10117810D03*
G01*
X4963007Y10117810D03*
G01*
X5217007Y10117810D03*
G01*
X5471007Y10117810D03*
G01*
X5725007Y10117810D03*
G01*
X899007Y11895810D03*
G01*
X1153007Y11895810D03*
G01*
X1407007Y11895810D03*
G01*
X1661007Y11895810D03*
G01*
X1915007Y11895810D03*
G01*
X2169007Y11895810D03*
G01*
X2423007Y11895810D03*
G01*
X2677007Y11895810D03*
G01*
X2931007Y11895810D03*
G01*
X3185007Y11895810D03*
G01*
X3439007Y11895810D03*
G01*
X3693007Y11895810D03*
G01*
X3947007Y11895810D03*
G01*
X4201007Y11895810D03*
G01*
X4455007Y11895810D03*
G01*
X4709007Y11895810D03*
G01*
X4963007Y11895810D03*
G01*
X5217007Y11895810D03*
G01*
X5471007Y11895810D03*
G01*
X5725007Y11895810D03*
D15*
G01*
X3049193Y10693400D03*
G01*
X4950307Y10693400D03*
G01*
X3302000Y10896600D03*
G01*
X5473700Y10896600D03*
G01*
X3556000Y11188700D03*
G01*
X5727700Y11188700D03*
G01*
X3810000Y11442700D03*
G01*
X4711700Y11442700D03*
M02*
